<svg width="356" height="356" viewBox="0 0 356 356" fill="none" xmlns="http://www.w3.org/2000/svg">
<g clip-path="url(#clip0_43_227)">
<rect width="356" height="356" fill="#62C8BD"/>
<g clip-path="url(#paint0_diamond_43_227_clip_path)" data-figma-skip-parse="true"><g transform="matrix(-0.0763119 0.0754034 -0.0840748 -0.0850877 129.295 98.3593)"><rect x="0" y="0" width="1318.7" height="644.835" fill="url(#paint0_diamond_43_227)" opacity="1" shape-rendering="crispEdges"/><rect x="0" y="0" width="1318.7" height="644.835" transform="scale(1 -1)" fill="url(#paint0_diamond_43_227)" opacity="1" shape-rendering="crispEdges"/><rect x="0" y="0" width="1318.7" height="644.835" transform="scale(-1 1)" fill="url(#paint0_diamond_43_227)" opacity="1" shape-rendering="crispEdges"/><rect x="0" y="0" width="1318.7" height="644.835" transform="scale(-1)" fill="url(#paint0_diamond_43_227)" opacity="1" shape-rendering="crispEdges"/></g></g><path d="M28 161.953L74.3322 92L137.471 150.597L96.1356 189.207L51.1661 195.112L28 161.953Z" data-figma-gradient-fill="{&#34;type&#34;:&#34;GRADIENT_DIAMOND&#34;,&#34;stops&#34;:[{&#34;color&#34;:{&#34;r&#34;:0.0,&#34;g&#34;:0.0,&#34;b&#34;:0.0,&#34;a&#34;:1.0},&#34;position&#34;:0.0},{&#34;color&#34;:{&#34;r&#34;:0.0,&#34;g&#34;:0.0,&#34;b&#34;:0.0,&#34;a&#34;:0.0},&#34;position&#34;:1.0}],&#34;stopsVar&#34;:[{&#34;color&#34;:{&#34;r&#34;:0.0,&#34;g&#34;:0.0,&#34;b&#34;:0.0,&#34;a&#34;:1.0},&#34;position&#34;:0.0},{&#34;color&#34;:{&#34;r&#34;:0.0,&#34;g&#34;:0.0,&#34;b&#34;:0.0,&#34;a&#34;:0.0},&#34;position&#34;:1.0}],&#34;transform&#34;:{&#34;m00&#34;:-152.62373352050781,&#34;m01&#34;:-168.14959716796875,&#34;m02&#34;:289.68157958984375,&#34;m10&#34;:150.80677795410156,&#34;m11&#34;:-170.17539978027344,&#34;m12&#34;:108.04364013671875},&#34;opacity&#34;:1.0,&#34;blendMode&#34;:&#34;NORMAL&#34;,&#34;visible&#34;:true}"/>
<g clip-path="url(#paint1_diamond_43_227_clip_path)" data-figma-skip-parse="true"><g transform="matrix(-0.0763119 0.0754034 -0.0840748 -0.0850877 205.295 98.3593)"><rect x="0" y="0" width="1318.7" height="644.835" fill="url(#paint1_diamond_43_227)" opacity="1" shape-rendering="crispEdges"/><rect x="0" y="0" width="1318.7" height="644.835" transform="scale(1 -1)" fill="url(#paint1_diamond_43_227)" opacity="1" shape-rendering="crispEdges"/><rect x="0" y="0" width="1318.7" height="644.835" transform="scale(-1 1)" fill="url(#paint1_diamond_43_227)" opacity="1" shape-rendering="crispEdges"/><rect x="0" y="0" width="1318.7" height="644.835" transform="scale(-1)" fill="url(#paint1_diamond_43_227)" opacity="1" shape-rendering="crispEdges"/></g></g><path d="M104 161.953L150.332 92L213.471 150.597L172.136 189.207L127.166 195.112L104 161.953Z" data-figma-gradient-fill="{&#34;type&#34;:&#34;GRADIENT_DIAMOND&#34;,&#34;stops&#34;:[{&#34;color&#34;:{&#34;r&#34;:0.0,&#34;g&#34;:0.0,&#34;b&#34;:0.0,&#34;a&#34;:1.0},&#34;position&#34;:0.0},{&#34;color&#34;:{&#34;r&#34;:0.0,&#34;g&#34;:0.0,&#34;b&#34;:0.0,&#34;a&#34;:0.0},&#34;position&#34;:1.0}],&#34;stopsVar&#34;:[{&#34;color&#34;:{&#34;r&#34;:0.0,&#34;g&#34;:0.0,&#34;b&#34;:0.0,&#34;a&#34;:1.0},&#34;position&#34;:0.0},{&#34;color&#34;:{&#34;r&#34;:0.0,&#34;g&#34;:0.0,&#34;b&#34;:0.0,&#34;a&#34;:0.0},&#34;position&#34;:1.0}],&#34;transform&#34;:{&#34;m00&#34;:-152.62373352050781,&#34;m01&#34;:-168.14959716796875,&#34;m02&#34;:365.68157958984375,&#34;m10&#34;:150.80677795410156,&#34;m11&#34;:-170.17539978027344,&#34;m12&#34;:108.04364013671875},&#34;opacity&#34;:1.0,&#34;blendMode&#34;:&#34;NORMAL&#34;,&#34;visible&#34;:true}"/>
<g clip-path="url(#paint2_diamond_43_227_clip_path)" data-figma-skip-parse="true"><g transform="matrix(-0.0763119 0.0754034 -0.0840748 -0.0850877 281.295 98.3593)"><rect x="0" y="0" width="1318.7" height="644.835" fill="url(#paint2_diamond_43_227)" opacity="1" shape-rendering="crispEdges"/><rect x="0" y="0" width="1318.7" height="644.835" transform="scale(1 -1)" fill="url(#paint2_diamond_43_227)" opacity="1" shape-rendering="crispEdges"/><rect x="0" y="0" width="1318.7" height="644.835" transform="scale(-1 1)" fill="url(#paint2_diamond_43_227)" opacity="1" shape-rendering="crispEdges"/><rect x="0" y="0" width="1318.7" height="644.835" transform="scale(-1)" fill="url(#paint2_diamond_43_227)" opacity="1" shape-rendering="crispEdges"/></g></g><path d="M180 161.953L226.332 92L289.471 150.597L248.136 189.207L203.166 195.112L180 161.953Z" data-figma-gradient-fill="{&#34;type&#34;:&#34;GRADIENT_DIAMOND&#34;,&#34;stops&#34;:[{&#34;color&#34;:{&#34;r&#34;:0.0,&#34;g&#34;:0.0,&#34;b&#34;:0.0,&#34;a&#34;:1.0},&#34;position&#34;:0.0},{&#34;color&#34;:{&#34;r&#34;:0.0,&#34;g&#34;:0.0,&#34;b&#34;:0.0,&#34;a&#34;:0.0},&#34;position&#34;:1.0}],&#34;stopsVar&#34;:[{&#34;color&#34;:{&#34;r&#34;:0.0,&#34;g&#34;:0.0,&#34;b&#34;:0.0,&#34;a&#34;:1.0},&#34;position&#34;:0.0},{&#34;color&#34;:{&#34;r&#34;:0.0,&#34;g&#34;:0.0,&#34;b&#34;:0.0,&#34;a&#34;:0.0},&#34;position&#34;:1.0}],&#34;transform&#34;:{&#34;m00&#34;:-152.62373352050781,&#34;m01&#34;:-168.14959716796875,&#34;m02&#34;:441.68157958984375,&#34;m10&#34;:150.80677795410156,&#34;m11&#34;:-170.17539978027344,&#34;m12&#34;:108.04364013671875},&#34;opacity&#34;:1.0,&#34;blendMode&#34;:&#34;NORMAL&#34;,&#34;visible&#34;:true}"/>
<rect x="73" y="88" width="67.2271" height="67.2271" rx="12" fill="#FEF9D9"/>
<rect x="72.5" y="87.5" width="68.2271" height="68.2271" rx="12.5" stroke="#FEF9D9" stroke-opacity="0.5"/>
<path d="M110.157 113.275C110.044 112.13 109.556 111.239 108.694 110.605C107.832 109.971 106.663 109.653 105.186 109.653C104.182 109.653 103.334 109.795 102.643 110.079C101.952 110.354 101.421 110.738 101.052 111.23C100.692 111.722 100.512 112.281 100.512 112.906C100.493 113.427 100.602 113.881 100.839 114.27C101.085 114.658 101.421 114.994 101.848 115.278C102.274 115.553 102.766 115.794 103.325 116.003C103.884 116.202 104.48 116.372 105.115 116.514L107.728 117.139C108.997 117.423 110.162 117.802 111.223 118.275C112.283 118.749 113.202 119.331 113.978 120.023C114.755 120.714 115.356 121.528 115.782 122.466C116.218 123.403 116.44 124.478 116.45 125.69C116.44 127.471 115.986 129.014 115.086 130.321C114.196 131.618 112.908 132.627 111.223 133.346C109.546 134.057 107.525 134.412 105.157 134.412C102.809 134.412 100.763 134.052 99.0209 133.332C97.2879 132.613 95.9337 131.547 94.9584 130.136C93.9925 128.716 93.4858 126.959 93.4385 124.866H99.3902C99.4565 125.842 99.7358 126.656 100.228 127.31C100.73 127.953 101.398 128.441 102.231 128.773C103.074 129.095 104.026 129.256 105.086 129.256C106.128 129.256 107.032 129.104 107.799 128.801C108.576 128.498 109.177 128.077 109.603 127.537C110.029 126.997 110.242 126.377 110.242 125.676C110.242 125.023 110.048 124.473 109.66 124.028C109.281 123.583 108.723 123.204 107.984 122.892C107.255 122.579 106.36 122.295 105.299 122.04L102.132 121.244C99.679 120.648 97.7425 119.715 96.322 118.446C94.9015 117.177 94.1961 115.468 94.2055 113.318C94.1961 111.557 94.6648 110.018 95.6118 108.702C96.5682 107.385 97.8798 106.358 99.5464 105.619C101.213 104.881 103.107 104.511 105.228 104.511C107.387 104.511 109.272 104.881 110.882 105.619C112.501 106.358 113.76 107.385 114.66 108.702C115.56 110.018 116.024 111.542 116.052 113.275H110.157Z" fill="#1C2542"/>
<path d="M131.355 128.455V143H128.279V131.374H128.194L124.863 133.462V130.734L128.464 128.455H131.355Z" fill="#1C2542"/>
<rect x="148.227" y="88" width="67.2271" height="67.2271" rx="12" fill="#FEF9D9"/>
<rect x="147.727" y="87.5" width="68.2271" height="68.2271" rx="12.5" stroke="#FEF9D9" stroke-opacity="0.5"/>
<path d="M187.572 104.909H193.722V123.801C193.722 125.922 193.216 127.779 192.202 129.369C191.199 130.96 189.792 132.201 187.984 133.091C186.175 133.972 184.068 134.412 181.663 134.412C179.248 134.412 177.136 133.972 175.327 133.091C173.519 132.201 172.112 130.96 171.109 129.369C170.105 127.779 169.603 125.922 169.603 123.801V104.909H175.754V123.276C175.754 124.384 175.995 125.368 176.478 126.23C176.97 127.092 177.662 127.769 178.552 128.261C179.442 128.754 180.479 129 181.663 129C182.856 129 183.893 128.754 184.773 128.261C185.664 127.769 186.35 127.092 186.833 126.23C187.326 125.368 187.572 124.384 187.572 123.276V104.909Z" fill="#1C2542"/>
<path d="M206.582 128.455V143H203.507V131.374H203.421L200.09 133.462V130.734L203.691 128.455H206.582Z" fill="#1C2542"/>
<rect x="223.454" y="88" width="67.2271" height="67.2271" rx="12" fill="#FEF9D9"/>
<rect x="222.954" y="87.5" width="68.2271" height="68.2271" rx="12.5" stroke="#FEF9D9" stroke-opacity="0.5"/>
<path d="M239.83 104.909H247.415L255.427 124.455H255.768L263.779 104.909H271.364V134H265.398V115.065H265.157L257.628 133.858H253.566L246.037 114.994H245.796V134H239.83V104.909Z" fill="#1C2542"/>
<path d="M280.857 143.199C279.796 143.199 278.852 143.017 278.023 142.652C277.199 142.283 276.548 141.776 276.07 141.132C275.596 140.484 275.353 139.736 275.338 138.888H278.435C278.454 139.243 278.57 139.556 278.783 139.825C279.001 140.091 279.29 140.297 279.649 140.443C280.009 140.59 280.414 140.664 280.864 140.664C281.333 140.664 281.747 140.581 282.107 140.415C282.467 140.249 282.748 140.02 282.952 139.726C283.156 139.432 283.257 139.094 283.257 138.71C283.257 138.322 283.149 137.979 282.931 137.681C282.718 137.378 282.41 137.141 282.007 136.97C281.61 136.8 281.136 136.715 280.587 136.715H279.23V134.456H280.587C281.051 134.456 281.461 134.376 281.816 134.215C282.176 134.054 282.455 133.831 282.654 133.547C282.853 133.258 282.952 132.922 282.952 132.539C282.952 132.174 282.864 131.854 282.689 131.58C282.519 131.3 282.277 131.083 281.965 130.926C281.657 130.77 281.297 130.692 280.885 130.692C280.469 130.692 280.087 130.768 279.742 130.919C279.396 131.066 279.119 131.277 278.911 131.551C278.702 131.826 278.591 132.148 278.577 132.517H275.63C275.644 131.679 275.883 130.941 276.347 130.301C276.811 129.662 277.436 129.163 278.222 128.803C279.013 128.438 279.905 128.256 280.899 128.256C281.903 128.256 282.782 128.438 283.534 128.803C284.287 129.167 284.872 129.66 285.289 130.28C285.71 130.896 285.918 131.587 285.914 132.354C285.918 133.168 285.665 133.848 285.154 134.392C284.647 134.937 283.987 135.282 283.172 135.429V135.543C284.242 135.68 285.057 136.052 285.615 136.658C286.179 137.259 286.458 138.012 286.453 138.916C286.458 139.745 286.219 140.481 285.736 141.125C285.258 141.769 284.597 142.276 283.755 142.645C282.912 143.014 281.946 143.199 280.857 143.199Z" fill="#1C2542"/>
<g clip-path="url(#paint3_diamond_43_227_clip_path)" data-figma-skip-parse="true"><g transform="matrix(-0.0763119 0.0754034 -0.0840748 -0.0850877 91.2949 186.359)"><rect x="0" y="0" width="1318.7" height="644.835" fill="url(#paint3_diamond_43_227)" opacity="1" shape-rendering="crispEdges"/><rect x="0" y="0" width="1318.7" height="644.835" transform="scale(1 -1)" fill="url(#paint3_diamond_43_227)" opacity="1" shape-rendering="crispEdges"/><rect x="0" y="0" width="1318.7" height="644.835" transform="scale(-1 1)" fill="url(#paint3_diamond_43_227)" opacity="1" shape-rendering="crispEdges"/><rect x="0" y="0" width="1318.7" height="644.835" transform="scale(-1)" fill="url(#paint3_diamond_43_227)" opacity="1" shape-rendering="crispEdges"/></g></g><path d="M-10 249.953L36.3322 180L99.4712 238.597L58.1356 277.207L13.1661 283.112L-10 249.953Z" data-figma-gradient-fill="{&#34;type&#34;:&#34;GRADIENT_DIAMOND&#34;,&#34;stops&#34;:[{&#34;color&#34;:{&#34;r&#34;:0.0,&#34;g&#34;:0.0,&#34;b&#34;:0.0,&#34;a&#34;:1.0},&#34;position&#34;:0.0},{&#34;color&#34;:{&#34;r&#34;:0.0,&#34;g&#34;:0.0,&#34;b&#34;:0.0,&#34;a&#34;:0.0},&#34;position&#34;:1.0}],&#34;stopsVar&#34;:[{&#34;color&#34;:{&#34;r&#34;:0.0,&#34;g&#34;:0.0,&#34;b&#34;:0.0,&#34;a&#34;:1.0},&#34;position&#34;:0.0},{&#34;color&#34;:{&#34;r&#34;:0.0,&#34;g&#34;:0.0,&#34;b&#34;:0.0,&#34;a&#34;:0.0},&#34;position&#34;:1.0}],&#34;transform&#34;:{&#34;m00&#34;:-152.62373352050781,&#34;m01&#34;:-168.14959716796875,&#34;m02&#34;:251.68157958984375,&#34;m10&#34;:150.80677795410156,&#34;m11&#34;:-170.17539978027344,&#34;m12&#34;:196.04364013671875},&#34;opacity&#34;:1.0,&#34;blendMode&#34;:&#34;NORMAL&#34;,&#34;visible&#34;:true}"/>
<g clip-path="url(#paint4_diamond_43_227_clip_path)" data-figma-skip-parse="true"><g transform="matrix(-0.0763119 0.0754034 -0.0840748 -0.0850877 167.295 186.359)"><rect x="0" y="0" width="1318.7" height="644.835" fill="url(#paint4_diamond_43_227)" opacity="1" shape-rendering="crispEdges"/><rect x="0" y="0" width="1318.7" height="644.835" transform="scale(1 -1)" fill="url(#paint4_diamond_43_227)" opacity="1" shape-rendering="crispEdges"/><rect x="0" y="0" width="1318.7" height="644.835" transform="scale(-1 1)" fill="url(#paint4_diamond_43_227)" opacity="1" shape-rendering="crispEdges"/><rect x="0" y="0" width="1318.7" height="644.835" transform="scale(-1)" fill="url(#paint4_diamond_43_227)" opacity="1" shape-rendering="crispEdges"/></g></g><path d="M66 249.953L112.332 180L175.471 238.597L134.136 277.207L89.1661 283.112L66 249.953Z" data-figma-gradient-fill="{&#34;type&#34;:&#34;GRADIENT_DIAMOND&#34;,&#34;stops&#34;:[{&#34;color&#34;:{&#34;r&#34;:0.0,&#34;g&#34;:0.0,&#34;b&#34;:0.0,&#34;a&#34;:1.0},&#34;position&#34;:0.0},{&#34;color&#34;:{&#34;r&#34;:0.0,&#34;g&#34;:0.0,&#34;b&#34;:0.0,&#34;a&#34;:0.0},&#34;position&#34;:1.0}],&#34;stopsVar&#34;:[{&#34;color&#34;:{&#34;r&#34;:0.0,&#34;g&#34;:0.0,&#34;b&#34;:0.0,&#34;a&#34;:1.0},&#34;position&#34;:0.0},{&#34;color&#34;:{&#34;r&#34;:0.0,&#34;g&#34;:0.0,&#34;b&#34;:0.0,&#34;a&#34;:0.0},&#34;position&#34;:1.0}],&#34;transform&#34;:{&#34;m00&#34;:-152.62373352050781,&#34;m01&#34;:-168.14959716796875,&#34;m02&#34;:327.68157958984375,&#34;m10&#34;:150.80677795410156,&#34;m11&#34;:-170.17539978027344,&#34;m12&#34;:196.04364013671875},&#34;opacity&#34;:1.0,&#34;blendMode&#34;:&#34;NORMAL&#34;,&#34;visible&#34;:true}"/>
<g clip-path="url(#paint5_diamond_43_227_clip_path)" data-figma-skip-parse="true"><g transform="matrix(-0.0763119 0.0754034 -0.0840748 -0.0850877 243.295 186.359)"><rect x="0" y="0" width="1318.7" height="644.835" fill="url(#paint5_diamond_43_227)" opacity="1" shape-rendering="crispEdges"/><rect x="0" y="0" width="1318.7" height="644.835" transform="scale(1 -1)" fill="url(#paint5_diamond_43_227)" opacity="1" shape-rendering="crispEdges"/><rect x="0" y="0" width="1318.7" height="644.835" transform="scale(-1 1)" fill="url(#paint5_diamond_43_227)" opacity="1" shape-rendering="crispEdges"/><rect x="0" y="0" width="1318.7" height="644.835" transform="scale(-1)" fill="url(#paint5_diamond_43_227)" opacity="1" shape-rendering="crispEdges"/></g></g><path d="M142 249.953L188.332 180L251.471 238.597L210.136 277.207L165.166 283.112L142 249.953Z" data-figma-gradient-fill="{&#34;type&#34;:&#34;GRADIENT_DIAMOND&#34;,&#34;stops&#34;:[{&#34;color&#34;:{&#34;r&#34;:0.0,&#34;g&#34;:0.0,&#34;b&#34;:0.0,&#34;a&#34;:1.0},&#34;position&#34;:0.0},{&#34;color&#34;:{&#34;r&#34;:0.0,&#34;g&#34;:0.0,&#34;b&#34;:0.0,&#34;a&#34;:0.0},&#34;position&#34;:1.0}],&#34;stopsVar&#34;:[{&#34;color&#34;:{&#34;r&#34;:0.0,&#34;g&#34;:0.0,&#34;b&#34;:0.0,&#34;a&#34;:1.0},&#34;position&#34;:0.0},{&#34;color&#34;:{&#34;r&#34;:0.0,&#34;g&#34;:0.0,&#34;b&#34;:0.0,&#34;a&#34;:0.0},&#34;position&#34;:1.0}],&#34;transform&#34;:{&#34;m00&#34;:-152.62373352050781,&#34;m01&#34;:-168.14959716796875,&#34;m02&#34;:403.68157958984375,&#34;m10&#34;:150.80677795410156,&#34;m11&#34;:-170.17539978027344,&#34;m12&#34;:196.04364013671875},&#34;opacity&#34;:1.0,&#34;blendMode&#34;:&#34;NORMAL&#34;,&#34;visible&#34;:true}"/>
<g clip-path="url(#paint6_diamond_43_227_clip_path)" data-figma-skip-parse="true"><g transform="matrix(-0.0763119 0.0754034 -0.0840748 -0.0850877 319.295 186.359)"><rect x="0" y="0" width="1318.7" height="644.835" fill="url(#paint6_diamond_43_227)" opacity="1" shape-rendering="crispEdges"/><rect x="0" y="0" width="1318.7" height="644.835" transform="scale(1 -1)" fill="url(#paint6_diamond_43_227)" opacity="1" shape-rendering="crispEdges"/><rect x="0" y="0" width="1318.7" height="644.835" transform="scale(-1 1)" fill="url(#paint6_diamond_43_227)" opacity="1" shape-rendering="crispEdges"/><rect x="0" y="0" width="1318.7" height="644.835" transform="scale(-1)" fill="url(#paint6_diamond_43_227)" opacity="1" shape-rendering="crispEdges"/></g></g><path d="M218 249.953L264.332 180L327.471 238.597L286.136 277.207L241.166 283.112L218 249.953Z" data-figma-gradient-fill="{&#34;type&#34;:&#34;GRADIENT_DIAMOND&#34;,&#34;stops&#34;:[{&#34;color&#34;:{&#34;r&#34;:0.0,&#34;g&#34;:0.0,&#34;b&#34;:0.0,&#34;a&#34;:1.0},&#34;position&#34;:0.0},{&#34;color&#34;:{&#34;r&#34;:0.0,&#34;g&#34;:0.0,&#34;b&#34;:0.0,&#34;a&#34;:0.0},&#34;position&#34;:1.0}],&#34;stopsVar&#34;:[{&#34;color&#34;:{&#34;r&#34;:0.0,&#34;g&#34;:0.0,&#34;b&#34;:0.0,&#34;a&#34;:1.0},&#34;position&#34;:0.0},{&#34;color&#34;:{&#34;r&#34;:0.0,&#34;g&#34;:0.0,&#34;b&#34;:0.0,&#34;a&#34;:0.0},&#34;position&#34;:1.0}],&#34;transform&#34;:{&#34;m00&#34;:-152.62373352050781,&#34;m01&#34;:-168.14959716796875,&#34;m02&#34;:479.68157958984375,&#34;m10&#34;:150.80677795410156,&#34;m11&#34;:-170.17539978027344,&#34;m12&#34;:196.04364013671875},&#34;opacity&#34;:1.0,&#34;blendMode&#34;:&#34;NORMAL&#34;,&#34;visible&#34;:true}"/>
<rect x="35" y="176" width="67.2271" height="67.2271" rx="12" fill="#FEF9D9"/>
<rect x="34.5" y="175.5" width="68.2271" height="68.2271" rx="12.5" stroke="#FEF9D9" stroke-opacity="0.5"/>
<path d="M55.2681 197.98V192.909H79.1601V197.98H70.2539V222H64.1743V197.98H55.2681Z" fill="#1C2542"/>
<path d="M93.3548 216.455V231H90.2795V219.374H90.1942L86.8633 221.462V218.734L90.4641 216.455H93.3548Z" fill="#1C2542"/>
<rect x="110.227" y="176" width="67.2271" height="67.2271" rx="12" fill="#FEF9D9"/>
<rect x="109.727" y="175.5" width="68.2271" height="68.2271" rx="12.5" stroke="#FEF9D9" stroke-opacity="0.5"/>
<path d="M146.679 192.909V222H140.528V192.909H146.679Z" fill="#1C2542"/>
<path d="M168.582 216.455V231H165.507V219.374H165.421L162.09 221.462V218.734L165.691 216.455H168.582Z" fill="#1C2542"/>
<rect x="185.454" y="176" width="67.2271" height="67.2271" rx="12" fill="#FEF9D9"/>
<rect x="184.954" y="175.5" width="68.2271" height="68.2271" rx="12.5" stroke="#FEF9D9" stroke-opacity="0.5"/>
<path d="M210.528 222V192.909H216.679V216.929H229.15V222H210.528Z" fill="#1C2542"/>
<path d="M243.809 216.455V231H240.734V219.374H240.648L237.317 221.462V218.734L240.918 216.455H243.809Z" fill="#1C2542"/>
<rect x="260.681" y="176" width="67.2271" height="67.2271" rx="12" fill="#FEF9D9"/>
<rect x="260.181" y="175.5" width="68.2271" height="68.2271" rx="12.5" stroke="#FEF9D9" stroke-opacity="0.5"/>
<path d="M285.755 222V192.909H305.358V197.98H291.906V204.912H304.349V209.983H291.906V216.929H305.414V222H285.755Z" fill="#1C2542"/>
<path d="M319.036 216.455V231H315.961V219.374H315.875L312.544 221.462V218.734L316.145 216.455H319.036Z" fill="#1C2542"/>
</g>
<defs>
<clipPath id="paint0_diamond_43_227_clip_path"><path d="M28 161.953L74.3322 92L137.471 150.597L96.1356 189.207L51.1661 195.112L28 161.953Z"/></clipPath><clipPath id="paint1_diamond_43_227_clip_path"><path d="M104 161.953L150.332 92L213.471 150.597L172.136 189.207L127.166 195.112L104 161.953Z"/></clipPath><clipPath id="paint2_diamond_43_227_clip_path"><path d="M180 161.953L226.332 92L289.471 150.597L248.136 189.207L203.166 195.112L180 161.953Z"/></clipPath><clipPath id="paint3_diamond_43_227_clip_path"><path d="M-10 249.953L36.3322 180L99.4712 238.597L58.1356 277.207L13.1661 283.112L-10 249.953Z"/></clipPath><clipPath id="paint4_diamond_43_227_clip_path"><path d="M66 249.953L112.332 180L175.471 238.597L134.136 277.207L89.1661 283.112L66 249.953Z"/></clipPath><clipPath id="paint5_diamond_43_227_clip_path"><path d="M142 249.953L188.332 180L251.471 238.597L210.136 277.207L165.166 283.112L142 249.953Z"/></clipPath><clipPath id="paint6_diamond_43_227_clip_path"><path d="M218 249.953L264.332 180L327.471 238.597L286.136 277.207L241.166 283.112L218 249.953Z"/></clipPath><linearGradient id="paint0_diamond_43_227" x1="0" y1="0" x2="500" y2="500" gradientUnits="userSpaceOnUse">
<stop/>
<stop offset="1" stop-opacity="0"/>
</linearGradient>
<linearGradient id="paint1_diamond_43_227" x1="0" y1="0" x2="500" y2="500" gradientUnits="userSpaceOnUse">
<stop/>
<stop offset="1" stop-opacity="0"/>
</linearGradient>
<linearGradient id="paint2_diamond_43_227" x1="0" y1="0" x2="500" y2="500" gradientUnits="userSpaceOnUse">
<stop/>
<stop offset="1" stop-opacity="0"/>
</linearGradient>
<linearGradient id="paint3_diamond_43_227" x1="0" y1="0" x2="500" y2="500" gradientUnits="userSpaceOnUse">
<stop/>
<stop offset="1" stop-opacity="0"/>
</linearGradient>
<linearGradient id="paint4_diamond_43_227" x1="0" y1="0" x2="500" y2="500" gradientUnits="userSpaceOnUse">
<stop/>
<stop offset="1" stop-opacity="0"/>
</linearGradient>
<linearGradient id="paint5_diamond_43_227" x1="0" y1="0" x2="500" y2="500" gradientUnits="userSpaceOnUse">
<stop/>
<stop offset="1" stop-opacity="0"/>
</linearGradient>
<linearGradient id="paint6_diamond_43_227" x1="0" y1="0" x2="500" y2="500" gradientUnits="userSpaceOnUse">
<stop/>
<stop offset="1" stop-opacity="0"/>
</linearGradient>
<clipPath id="clip0_43_227">
<rect width="356" height="356" fill="white"/>
</clipPath>
</defs>
</svg>
