<svg xmlns="http://www.w3.org/2000/svg" viewBox="0 0 1200 630">
  <defs>
    <linearGradient id="bgGrad" x1="0%" y1="0%" x2="100%" y2="100%">
      <stop offset="0%" style="stop-color:#eef2ff;stop-opacity:1" />
      <stop offset="100%" style="stop-color:#c7d2fe;stop-opacity:1" />
    </linearGradient>
    <linearGradient id="tileGrad" x1="0%" y1="0%" x2="100%" y2="100%">
      <stop offset="0%" style="stop-color:#6366f1;stop-opacity:1" />
      <stop offset="100%" style="stop-color:#4f46e5;stop-opacity:1" />
    </linearGradient>
  </defs>
  
  <!-- Background -->
  <rect width="1200" height="630" fill="url(#bgGrad)"/>
  
  <!-- Decorative tiles in background -->
  <g opacity="0.1">
    <rect x="100" y="100" width="80" height="80" rx="8" fill="url(#tileGrad)"/>
    <rect x="220" y="100" width="80" height="80" rx="8" fill="url(#tileGrad)"/>
    <rect x="100" y="220" width="80" height="80" rx="8" fill="url(#tileGrad)"/>
    <rect x="220" y="220" width="80" height="80" rx="8" fill="url(#tileGrad)"/>
    
    <rect x="900" y="350" width="80" height="80" rx="8" fill="url(#tileGrad)"/>
    <rect x="1020" y="350" width="80" height="80" rx="8" fill="url(#tileGrad)"/>
    <rect x="900" y="470" width="80" height="80" rx="8" fill="url(#tileGrad)"/>
    <rect x="1020" y="470" width="80" height="80" rx="8" fill="url(#tileGrad)"/>
  </g>
  
  <!-- Main title -->
  <text x="600" y="280" font-family="Arial, sans-serif" font-size="96" font-weight="bold" fill="#1e1b4b" text-anchor="middle">Sum Tile</text>
  
  <!-- Subtitle -->
  <text x="600" y="360" font-family="Arial, sans-serif" font-size="48" fill="#4f46e5" text-anchor="middle">Christmas Advent Calendar Edition</text>
  
  <!-- Puzzle tiles illustration -->
  <g transform="translate(600, 450)">
    <!-- Tiles -->
    <rect x="-120" y="-30" width="60" height="60" rx="6" fill="#ffffff" stroke="#6366f1" stroke-width="3"/>
    <text x="-90" y="5" font-family="Arial, sans-serif" font-size="28" font-weight="bold" fill="#6366f1" text-anchor="middle">T</text>
    <text x="-90" y="25" font-family="Arial, sans-serif" font-size="14" fill="#6366f1" text-anchor="middle">1</text>
    
    <rect x="-50" y="-30" width="60" height="60" rx="6" fill="#ffffff" stroke="#6366f1" stroke-width="3"/>
    <text x="-20" y="5" font-family="Arial, sans-serif" font-size="28" font-weight="bold" fill="#6366f1" text-anchor="middle">I</text>
    <text x="-20" y="25" font-family="Arial, sans-serif" font-size="14" fill="#6366f1" text-anchor="middle">1</text>
    
    <rect x="20" y="-30" width="60" height="60" rx="6" fill="#ffffff" stroke="#6366f1" stroke-width="3"/>
    <text x="50" y="5" font-family="Arial, sans-serif" font-size="28" font-weight="bold" fill="#6366f1" text-anchor="middle">L</text>
    <text x="50" y="25" font-family="Arial, sans-serif" font-size="14" fill="#6366f1" text-anchor="middle">1</text>
    
    <rect x="90" y="-30" width="60" height="60" rx="6" fill="#ffffff" stroke="#6366f1" stroke-width="3"/>
    <text x="120" y="5" font-family="Arial, sans-serif" font-size="28" font-weight="bold" fill="#6366f1" text-anchor="middle">E</text>
    <text x="120" y="25" font-family="Arial, sans-serif" font-size="14" fill="#6366f1" text-anchor="middle">1</text>
    
    <!-- Plus sign -->
    <text x="0" y="5" font-family="Arial, sans-serif" font-size="36" font-weight="bold" fill="#6366f1" text-anchor="middle">+</text>
  </g>
  
  <!-- Tagline -->
  <text x="600" y="550" font-family="Arial, sans-serif" font-size="32" fill="#64748b" text-anchor="middle">Daily word puzzle challenges</text>
</svg>

