<svg width="1200" height="630" viewBox="0 0 1200 630" fill="none" xmlns="http://www.w3.org/2000/svg">
<g clip-path="url(#clip0_43_3)">
<rect width="1200" height="630" fill="#62C8BD"/>
<rect x="387.468" y="537" width="226" height="226" transform="rotate(41.404 387.468 537)" fill="#E6BD53"/>
<circle cx="1151" cy="103" r="144" fill="#E1BA53"/>
<circle cx="476.5" cy="-20.5" r="123.5" fill="#4E2E07"/>
<circle cx="476.5" cy="-20.4998" r="79.7604" fill="#62C8BD"/>
<rect x="-150" y="282.145" width="226" height="226" transform="rotate(-24.6183 -150 282.145)" fill="#EA247B"/>
<circle cx="1100" cy="646" r="144" fill="#4E2E07"/>
<circle cx="1100" cy="646" r="93" fill="#62C8BD"/>
<g filter="url(#filter0_d_43_3)">
<rect x="208" y="345.886" width="241" height="148.227" rx="24" fill="#E6BD53"/>
<rect x="213.5" y="355.386" width="64.2271" height="64.2271" rx="6.5" stroke="#4E2E07" stroke-width="3" stroke-dasharray="9 9"/>
<rect x="286.727" y="355.386" width="64.2271" height="64.2271" rx="6.5" stroke="#4E2E07" stroke-width="3" stroke-dasharray="9 9"/>
<rect x="359.954" y="355.386" width="64.2271" height="64.2271" rx="6.5" stroke="#4E2E07" stroke-width="3" stroke-dasharray="9 9"/>
<path d="M232 435.113H298V484.113H232C222.059 484.113 214 476.054 214 466.113V453.113C214 443.172 222.059 435.113 232 435.113Z" stroke="#4E2E07" stroke-width="4"/>
<path d="M227.92 467.273C227.373 467.273 226.853 467.173 226.36 466.973C225.867 466.76 225.467 466.44 225.16 466.013C224.853 465.587 224.7 465.053 224.7 464.413C224.7 463.56 224.973 462.887 225.52 462.393C226.067 461.887 226.84 461.533 227.84 461.333L230.9 460.693V460.653C230.9 460.067 230.72 459.64 230.36 459.373C230 459.107 229.447 458.973 228.7 458.973C228.273 458.973 227.833 459 227.38 459.053C226.94 459.107 226.527 459.173 226.14 459.253L225.68 459.353L225.26 457.693L225.76 457.513C226.427 457.273 227.047 457.093 227.62 456.973C228.207 456.853 228.787 456.793 229.36 456.793C230.56 456.793 231.533 457.113 232.28 457.753C233.027 458.393 233.4 459.36 233.4 460.653V464.373C233.4 464.787 233.493 465.067 233.68 465.213C233.88 465.347 234.287 465.44 234.9 465.493L234.76 467.153C234.587 467.193 234.42 467.22 234.26 467.233C234.1 467.26 233.96 467.273 233.84 467.273C233.147 467.273 232.593 467.12 232.18 466.813C231.78 466.493 231.48 466.107 231.28 465.653L230.82 466.073C230.38 466.473 229.9 466.773 229.38 466.973C228.873 467.173 228.387 467.273 227.92 467.273ZM228.68 465.173C228.947 465.173 229.233 465.12 229.54 465.013C229.847 464.907 230.153 464.747 230.46 464.533L230.9 464.233V462.173L228.2 462.933C227.813 463.04 227.54 463.193 227.38 463.393C227.22 463.593 227.14 463.827 227.14 464.093C227.14 464.44 227.273 464.707 227.54 464.893C227.807 465.08 228.187 465.173 228.68 465.173ZM236.494 467.113V456.953H238.414L238.594 457.993L239.254 457.633C239.747 457.367 240.24 457.16 240.734 457.013C241.227 456.867 241.714 456.793 242.194 456.793C243.007 456.793 243.667 456.947 244.174 457.253C244.68 457.56 245.054 457.973 245.294 458.493C245.547 459.013 245.674 459.6 245.674 460.253V467.113H243.154V460.873C243.154 460.287 243.007 459.84 242.714 459.533C242.42 459.227 241.94 459.073 241.274 459.073C240.994 459.073 240.72 459.113 240.454 459.193C240.2 459.26 239.934 459.36 239.654 459.493L239.014 459.773V467.113H236.494ZM248.33 467.113V456.953H250.85V467.113H248.33ZM249.59 454.973C249.296 454.973 249.023 454.9 248.77 454.753C248.516 454.607 248.316 454.413 248.17 454.173C248.023 453.933 247.95 453.667 247.95 453.373C247.95 453.093 248.023 452.833 248.17 452.593C248.316 452.353 248.516 452.167 248.77 452.033C249.023 451.887 249.296 451.813 249.59 451.813C249.896 451.813 250.17 451.887 250.41 452.033C250.663 452.167 250.863 452.353 251.01 452.593C251.156 452.833 251.23 453.093 251.23 453.373C251.23 453.667 251.156 453.933 251.01 454.173C250.863 454.413 250.663 454.607 250.41 454.753C250.17 454.9 249.896 454.973 249.59 454.973ZM253.642 467.113V456.953H255.582L255.762 457.993L256.422 457.633C256.916 457.367 257.396 457.16 257.862 457.013C258.342 456.867 258.816 456.793 259.282 456.793C260.042 456.793 260.669 456.94 261.162 457.233C261.656 457.527 262.022 457.933 262.262 458.453C262.502 458.973 262.622 459.573 262.622 460.253V467.113H260.102V460.873C260.102 460.273 259.956 459.827 259.662 459.533C259.382 459.227 258.942 459.073 258.342 459.073C258.089 459.073 257.842 459.107 257.602 459.173C257.362 459.24 257.122 459.327 256.882 459.433L256.162 459.773V467.113H253.642ZM266.562 467.113V460.873C266.562 460.273 266.416 459.827 266.122 459.533C265.842 459.227 265.396 459.073 264.782 459.073C264.529 459.073 264.282 459.107 264.042 459.173C263.816 459.24 263.582 459.327 263.342 459.433L262.442 459.853L261.882 458.213L262.982 457.633C263.476 457.367 263.956 457.16 264.422 457.013C264.902 456.867 265.376 456.793 265.842 456.793C266.602 456.793 267.229 456.94 267.722 457.233C268.216 457.527 268.582 457.933 268.822 458.453C269.062 458.973 269.182 459.573 269.182 460.253V467.113H266.562ZM274.365 467.273C273.819 467.273 273.299 467.173 272.805 466.973C272.312 466.76 271.912 466.44 271.605 466.013C271.299 465.587 271.145 465.053 271.145 464.413C271.145 463.56 271.419 462.887 271.965 462.393C272.512 461.887 273.285 461.533 274.285 461.333L277.345 460.693V460.653C277.345 460.067 277.165 459.64 276.805 459.373C276.445 459.107 275.892 458.973 275.145 458.973C274.719 458.973 274.279 459 273.825 459.053C273.385 459.107 272.972 459.173 272.585 459.253L272.125 459.353L271.705 457.693L272.205 457.513C272.872 457.273 273.492 457.093 274.065 456.973C274.652 456.853 275.232 456.793 275.805 456.793C277.005 456.793 277.979 457.113 278.725 457.753C279.472 458.393 279.845 459.36 279.845 460.653V464.373C279.845 464.787 279.939 465.067 280.125 465.213C280.325 465.347 280.732 465.44 281.345 465.493L281.205 467.153C281.032 467.193 280.865 467.22 280.705 467.233C280.545 467.26 280.405 467.273 280.285 467.273C279.592 467.273 279.039 467.12 278.625 466.813C278.225 466.493 277.925 466.107 277.725 465.653L277.265 466.073C276.825 466.473 276.345 466.773 275.825 466.973C275.319 467.173 274.832 467.273 274.365 467.273ZM275.125 465.173C275.392 465.173 275.679 465.12 275.985 465.013C276.292 464.907 276.599 464.747 276.905 464.533L277.345 464.233V462.173L274.645 462.933C274.259 463.04 273.985 463.193 273.825 463.393C273.665 463.593 273.585 463.827 273.585 464.093C273.585 464.44 273.719 464.707 273.985 464.893C274.252 465.08 274.632 465.173 275.125 465.173ZM285.759 467.273C284.719 467.273 283.972 467.033 283.519 466.553C283.066 466.073 282.839 465.447 282.839 464.673V452.353L285.359 451.713V464.113C285.359 464.42 285.446 464.66 285.619 464.833C285.806 464.993 286.112 465.073 286.539 465.073C286.646 465.073 286.766 465.073 286.899 465.073C287.032 465.06 287.166 465.047 287.299 465.033L287.239 466.973C286.999 467.067 286.746 467.14 286.479 467.193C286.226 467.247 285.986 467.273 285.759 467.273Z" fill="#4E2E07"/>
<path d="M300 433.113H425C436.046 433.113 445 442.068 445 453.113V466.113C445 477.159 436.046 486.113 425 486.113H300V433.113Z" fill="#4E2E07"/>
<path d="M318.96 467.313C317.813 467.313 316.807 467.013 315.94 466.413C315.087 465.8 314.427 464.953 313.96 463.873C313.493 462.793 313.26 461.533 313.26 460.093C313.26 458.667 313.5 457.413 313.98 456.333C314.473 455.253 315.147 454.413 316 453.813C316.867 453.213 317.867 452.913 319 452.913C320.16 452.913 321.167 453.22 322.02 453.833C322.873 454.433 323.533 455.273 324 456.353C324.467 457.433 324.7 458.687 324.7 460.113C324.7 461.553 324.453 462.813 323.96 463.893C323.48 464.973 322.807 465.813 321.94 466.413C321.087 467.013 320.093 467.313 318.96 467.313ZM318.98 464.793C319.593 464.793 320.127 464.613 320.58 464.253C321.033 463.893 321.387 463.367 321.64 462.673C321.893 461.967 322.02 461.113 322.02 460.113C322.02 459.1 321.893 458.247 321.64 457.553C321.387 456.86 321.033 456.333 320.58 455.973C320.127 455.613 319.593 455.433 318.98 455.433C318.38 455.433 317.847 455.613 317.38 455.973C316.927 456.333 316.573 456.86 316.32 457.553C316.067 458.247 315.94 459.1 315.94 460.113C315.94 461.113 316.067 461.967 316.32 462.673C316.573 463.367 316.927 463.893 317.38 464.253C317.847 464.613 318.38 464.793 318.98 464.793ZM330.97 470.133L337.77 452.353H340.03L333.23 470.133H330.97ZM348.547 467.113V456.113L345.607 456.553L345.087 454.573L348.847 453.113H351.167V467.113H348.547ZM359.976 467.313C358.829 467.313 357.822 467.013 356.956 466.413C356.102 465.8 355.442 464.953 354.976 463.873C354.509 462.793 354.276 461.533 354.276 460.093C354.276 458.667 354.516 457.413 354.996 456.333C355.489 455.253 356.162 454.413 357.016 453.813C357.882 453.213 358.882 452.913 360.016 452.913C361.176 452.913 362.182 453.22 363.036 453.833C363.889 454.433 364.549 455.273 365.016 456.353C365.482 457.433 365.716 458.687 365.716 460.113C365.716 461.553 365.469 462.813 364.976 463.893C364.496 464.973 363.822 465.813 362.956 466.413C362.102 467.013 361.109 467.313 359.976 467.313ZM359.996 464.793C360.609 464.793 361.142 464.613 361.596 464.253C362.049 463.893 362.402 463.367 362.656 462.673C362.909 461.967 363.036 461.113 363.036 460.113C363.036 459.1 362.909 458.247 362.656 457.553C362.402 456.86 362.049 456.333 361.596 455.973C361.142 455.613 360.609 455.433 359.996 455.433C359.396 455.433 358.862 455.613 358.396 455.973C357.942 456.333 357.589 456.86 357.336 457.553C357.082 458.247 356.956 459.1 356.956 460.113C356.956 461.113 357.082 461.967 357.336 462.673C357.589 463.367 357.942 463.893 358.396 464.253C358.862 464.613 359.396 464.793 359.996 464.793ZM373.986 471.453V456.953H375.886L376.106 458.193L376.706 457.773C377.173 457.453 377.639 457.213 378.106 457.053C378.586 456.88 379.039 456.793 379.466 456.793C380.333 456.793 381.099 457.02 381.766 457.473C382.446 457.913 382.973 458.527 383.346 459.313C383.733 460.1 383.926 461.007 383.926 462.033C383.926 462.807 383.813 463.513 383.586 464.153C383.373 464.793 383.066 465.347 382.666 465.813C382.279 466.28 381.813 466.64 381.266 466.893C380.719 467.147 380.113 467.273 379.446 467.273C379.073 467.273 378.673 467.227 378.246 467.133C377.833 467.04 377.453 466.913 377.106 466.753L376.506 466.473V471.013L373.986 471.453ZM378.726 464.993C379.286 464.993 379.759 464.88 380.146 464.653C380.546 464.413 380.846 464.073 381.046 463.633C381.259 463.193 381.366 462.667 381.366 462.053C381.366 461.4 381.266 460.853 381.066 460.413C380.866 459.973 380.566 459.647 380.166 459.433C379.779 459.207 379.306 459.093 378.746 459.093C378.506 459.093 378.246 459.14 377.966 459.233C377.699 459.327 377.406 459.467 377.086 459.653L376.506 459.993V464.453L377.186 464.693C377.479 464.787 377.753 464.86 378.006 464.913C378.259 464.967 378.499 464.993 378.726 464.993ZM390.852 467.273C389.812 467.273 388.905 467.053 388.132 466.613C387.372 466.16 386.779 465.54 386.352 464.753C385.939 463.967 385.732 463.06 385.732 462.033C385.732 460.993 385.945 460.08 386.372 459.293C386.812 458.507 387.419 457.893 388.192 457.453C388.965 457.013 389.865 456.793 390.892 456.793C391.932 456.793 392.832 457.02 393.592 457.473C394.352 457.913 394.939 458.527 395.352 459.313C395.765 460.1 395.972 461.007 395.972 462.033C395.972 463.06 395.759 463.973 395.332 464.773C394.905 465.56 394.305 466.173 393.532 466.613C392.772 467.053 391.879 467.273 390.852 467.273ZM390.872 465.093C391.392 465.093 391.839 464.973 392.212 464.733C392.585 464.493 392.872 464.147 393.072 463.693C393.285 463.227 393.392 462.673 393.392 462.033C393.392 461.38 393.292 460.827 393.092 460.373C392.892 459.92 392.599 459.573 392.212 459.333C391.839 459.093 391.392 458.973 390.872 458.973C390.352 458.973 389.899 459.093 389.512 459.333C389.125 459.573 388.825 459.92 388.612 460.373C388.399 460.827 388.292 461.38 388.292 462.033C388.292 462.673 388.399 463.227 388.612 463.693C388.825 464.147 389.125 464.493 389.512 464.733C389.899 464.973 390.352 465.093 390.872 465.093ZM398.263 467.113V456.953H400.783V467.113H398.263ZM399.523 454.973C399.23 454.973 398.957 454.9 398.703 454.753C398.45 454.607 398.25 454.413 398.103 454.173C397.957 453.933 397.883 453.667 397.883 453.373C397.883 453.093 397.957 452.833 398.103 452.593C398.25 452.353 398.45 452.167 398.703 452.033C398.957 451.887 399.23 451.813 399.523 451.813C399.83 451.813 400.103 451.887 400.343 452.033C400.597 452.167 400.797 452.353 400.943 452.593C401.09 452.833 401.163 453.093 401.163 453.373C401.163 453.667 401.09 453.933 400.943 454.173C400.797 454.413 400.597 454.607 400.343 454.753C400.103 454.9 399.83 454.973 399.523 454.973ZM403.576 467.113V456.953H405.496L405.676 457.993L406.336 457.633C406.829 457.367 407.322 457.16 407.816 457.013C408.309 456.867 408.796 456.793 409.276 456.793C410.089 456.793 410.749 456.947 411.256 457.253C411.762 457.56 412.136 457.973 412.376 458.493C412.629 459.013 412.756 459.6 412.756 460.253V467.113H410.236V460.873C410.236 460.287 410.089 459.84 409.796 459.533C409.502 459.227 409.022 459.073 408.356 459.073C408.076 459.073 407.802 459.113 407.536 459.193C407.282 459.26 407.016 459.36 406.736 459.493L406.096 459.773V467.113H403.576ZM419.452 467.273C418.452 467.273 417.692 467.053 417.172 466.613C416.652 466.173 416.392 465.46 416.392 464.473V459.153H414.212V457.393L416.392 456.953V454.593L418.912 453.833V456.953H422.072V459.153H418.912V463.673C418.912 464.153 418.992 464.513 419.152 464.753C419.325 464.993 419.718 465.113 420.332 465.113C420.505 465.113 420.685 465.107 420.872 465.093C421.058 465.08 421.258 465.06 421.472 465.033L421.992 464.973L422.272 466.793L421.812 466.913C421.438 467.007 421.038 467.087 420.612 467.153C420.198 467.233 419.812 467.273 419.452 467.273ZM427.343 467.273C426.823 467.273 426.29 467.22 425.743 467.113C425.21 467.007 424.67 466.86 424.123 466.673L423.463 466.453L423.883 464.653L424.443 464.753C424.91 464.833 425.37 464.893 425.823 464.933C426.276 464.973 426.716 464.993 427.143 464.993C427.69 464.993 428.096 464.933 428.363 464.813C428.643 464.68 428.783 464.473 428.783 464.193C428.783 464.02 428.743 463.873 428.663 463.753C428.596 463.633 428.436 463.513 428.183 463.393C427.943 463.273 427.55 463.14 427.003 462.993C426.123 462.753 425.43 462.5 424.923 462.233C424.43 461.953 424.076 461.62 423.863 461.233C423.663 460.847 423.563 460.367 423.563 459.793C423.576 459.1 423.756 458.533 424.103 458.093C424.45 457.653 424.923 457.327 425.523 457.113C426.123 456.9 426.803 456.793 427.563 456.793C428.07 456.793 428.59 456.84 429.123 456.933C429.656 457.013 430.156 457.127 430.623 457.273L431.023 457.413L430.683 459.193L430.343 459.153C429.863 459.087 429.436 459.047 429.063 459.033C428.703 459.007 428.376 458.993 428.083 458.993C427.43 458.993 426.916 459.053 426.543 459.173C426.183 459.28 426.003 459.453 426.003 459.693C426.003 459.867 426.05 460.007 426.143 460.113C426.25 460.207 426.463 460.307 426.783 460.413C427.103 460.52 427.59 460.66 428.243 460.833C429.07 461.047 429.703 461.287 430.143 461.553C430.596 461.82 430.91 462.14 431.083 462.513C431.256 462.887 431.343 463.34 431.343 463.873C431.343 464.673 431.156 465.327 430.783 465.833C430.423 466.327 429.936 466.693 429.323 466.933C428.723 467.16 428.063 467.273 427.343 467.273Z" fill="white"/>
</g>
<g filter="url(#filter1_d_43_3)">
<rect x="469" y="345.886" width="514.59" height="148.227" rx="24" fill="#E6BD53"/>
<rect x="474.5" y="355.386" width="64.2271" height="64.2271" rx="6.5" stroke="#4E2E07" stroke-width="3" stroke-dasharray="9 9"/>
<rect x="547.727" y="355.386" width="64.2271" height="64.2271" rx="6.5" stroke="#4E2E07" stroke-width="3" stroke-dasharray="9 9"/>
<rect x="620.954" y="355.386" width="64.2271" height="64.2271" rx="6.5" stroke="#4E2E07" stroke-width="3" stroke-dasharray="9 9"/>
<rect x="694.181" y="355.386" width="64.2271" height="64.2271" rx="6.5" stroke="#4E2E07" stroke-width="3" stroke-dasharray="9 9"/>
<rect x="767.409" y="355.386" width="64.2271" height="64.2271" rx="6.5" stroke="#4E2E07" stroke-width="3" stroke-dasharray="9 9"/>
<rect x="840.636" y="355.386" width="64.2271" height="64.2271" rx="6.5" stroke="#4E2E07" stroke-width="3" stroke-dasharray="9 9"/>
<rect x="913.863" y="355.386" width="64.2271" height="64.2271" rx="6.5" stroke="#4E2E07" stroke-width="3" stroke-dasharray="9 9"/>
<path d="M832.59 433.113H957.59C968.636 433.113 977.59 442.068 977.59 453.113V466.113C977.59 477.159 968.636 486.113 957.59 486.113H832.59V433.113Z" fill="#4E2E07"/>
<path d="M851.55 467.313C850.403 467.313 849.397 467.013 848.53 466.413C847.677 465.8 847.017 464.953 846.55 463.873C846.083 462.793 845.85 461.533 845.85 460.093C845.85 458.667 846.09 457.413 846.57 456.333C847.063 455.253 847.737 454.413 848.59 453.813C849.457 453.213 850.457 452.913 851.59 452.913C852.75 452.913 853.757 453.22 854.61 453.833C855.463 454.433 856.123 455.273 856.59 456.353C857.057 457.433 857.29 458.687 857.29 460.113C857.29 461.553 857.043 462.813 856.55 463.893C856.07 464.973 855.397 465.813 854.53 466.413C853.677 467.013 852.683 467.313 851.55 467.313ZM851.57 464.793C852.183 464.793 852.717 464.613 853.17 464.253C853.623 463.893 853.977 463.367 854.23 462.673C854.483 461.967 854.61 461.113 854.61 460.113C854.61 459.1 854.483 458.247 854.23 457.553C853.977 456.86 853.623 456.333 853.17 455.973C852.717 455.613 852.183 455.433 851.57 455.433C850.97 455.433 850.437 455.613 849.97 455.973C849.517 456.333 849.163 456.86 848.91 457.553C848.657 458.247 848.53 459.1 848.53 460.113C848.53 461.113 848.657 461.967 848.91 462.673C849.163 463.367 849.517 463.893 849.97 464.253C850.437 464.613 850.97 464.793 851.57 464.793ZM863.56 470.133L870.36 452.353H872.62L865.82 470.133H863.56ZM878.557 467.113V465.193C878.557 464.42 878.657 463.767 878.857 463.233C879.057 462.687 879.371 462.2 879.797 461.773C880.224 461.333 880.777 460.893 881.457 460.453L883.217 459.333C883.964 458.867 884.491 458.467 884.797 458.133C885.117 457.787 885.277 457.373 885.277 456.893C885.277 456.427 885.104 456.053 884.757 455.773C884.411 455.48 883.891 455.333 883.197 455.333C882.651 455.333 882.131 455.387 881.637 455.493C881.144 455.587 880.624 455.713 880.077 455.873L879.217 456.133L878.557 454.333L879.377 453.933C880.124 453.587 880.857 453.333 881.577 453.173C882.311 453 883.024 452.913 883.717 452.913C884.584 452.913 885.331 453.067 885.957 453.373C886.597 453.667 887.091 454.1 887.437 454.673C887.797 455.233 887.977 455.927 887.977 456.753C887.977 457.407 887.851 457.993 887.597 458.513C887.357 459.033 887.004 459.513 886.537 459.953C886.071 460.38 885.504 460.8 884.837 461.213L882.817 462.473C882.324 462.78 881.924 463.1 881.617 463.433C881.324 463.767 881.177 464.247 881.177 464.873V465.273L880.897 464.633H888.197V467.113H878.557ZM894.159 467.273C893.506 467.273 892.859 467.2 892.219 467.053C891.579 466.893 890.959 466.68 890.359 466.413L889.479 466.033L890.199 464.153L890.999 464.393C891.519 464.553 892.006 464.673 892.459 464.753C892.926 464.833 893.373 464.873 893.799 464.873C894.666 464.873 895.319 464.72 895.759 464.413C896.199 464.093 896.419 463.627 896.419 463.013C896.419 462.413 896.226 461.96 895.839 461.653C895.453 461.333 894.893 461.173 894.159 461.173H891.659V458.833H894.059C894.686 458.833 895.186 458.673 895.559 458.353C895.933 458.02 896.119 457.587 896.119 457.053C896.119 456.48 895.939 456.053 895.579 455.773C895.233 455.48 894.713 455.333 894.019 455.333C893.593 455.333 893.146 455.367 892.679 455.433C892.226 455.5 891.739 455.607 891.219 455.753L890.559 455.953L889.979 454.173L890.799 453.793C891.413 453.513 892.039 453.3 892.679 453.153C893.319 452.993 893.959 452.913 894.599 452.913C895.506 452.913 896.266 453.067 896.879 453.373C897.506 453.68 897.979 454.107 898.299 454.653C898.633 455.187 898.806 455.813 898.819 456.533C898.819 457.2 898.646 457.807 898.299 458.353C897.953 458.9 897.466 459.327 896.839 459.633V459.693C897.573 459.987 898.146 460.44 898.559 461.053C898.973 461.667 899.179 462.387 899.179 463.213C899.179 464.027 898.973 464.74 898.559 465.353C898.146 465.967 897.559 466.44 896.799 466.773C896.053 467.107 895.173 467.273 894.159 467.273ZM907.084 471.453V456.953H908.984L909.204 458.193L909.804 457.773C910.27 457.453 910.737 457.213 911.204 457.053C911.684 456.88 912.137 456.793 912.564 456.793C913.43 456.793 914.197 457.02 914.864 457.473C915.544 457.913 916.07 458.527 916.444 459.313C916.83 460.1 917.024 461.007 917.024 462.033C917.024 462.807 916.91 463.513 916.684 464.153C916.47 464.793 916.164 465.347 915.764 465.813C915.377 466.28 914.91 466.64 914.364 466.893C913.817 467.147 913.21 467.273 912.544 467.273C912.17 467.273 911.77 467.227 911.344 467.133C910.93 467.04 910.55 466.913 910.204 466.753L909.604 466.473V471.013L907.084 471.453ZM911.824 464.993C912.384 464.993 912.857 464.88 913.244 464.653C913.644 464.413 913.944 464.073 914.144 463.633C914.357 463.193 914.464 462.667 914.464 462.053C914.464 461.4 914.364 460.853 914.164 460.413C913.964 459.973 913.664 459.647 913.264 459.433C912.877 459.207 912.404 459.093 911.844 459.093C911.604 459.093 911.344 459.14 911.064 459.233C910.797 459.327 910.504 459.467 910.184 459.653L909.604 459.993V464.453L910.284 464.693C910.577 464.787 910.85 464.86 911.104 464.913C911.357 464.967 911.597 464.993 911.824 464.993ZM923.95 467.273C922.91 467.273 922.003 467.053 921.23 466.613C920.47 466.16 919.876 465.54 919.45 464.753C919.036 463.967 918.83 463.06 918.83 462.033C918.83 460.993 919.043 460.08 919.47 459.293C919.91 458.507 920.516 457.893 921.29 457.453C922.063 457.013 922.963 456.793 923.99 456.793C925.03 456.793 925.93 457.02 926.69 457.473C927.45 457.913 928.036 458.527 928.45 459.313C928.863 460.1 929.07 461.007 929.07 462.033C929.07 463.06 928.856 463.973 928.43 464.773C928.003 465.56 927.403 466.173 926.63 466.613C925.87 467.053 924.976 467.273 923.95 467.273ZM923.97 465.093C924.49 465.093 924.936 464.973 925.31 464.733C925.683 464.493 925.97 464.147 926.17 463.693C926.383 463.227 926.49 462.673 926.49 462.033C926.49 461.38 926.39 460.827 926.19 460.373C925.99 459.92 925.696 459.573 925.31 459.333C924.936 459.093 924.49 458.973 923.97 458.973C923.45 458.973 922.996 459.093 922.61 459.333C922.223 459.573 921.923 459.92 921.71 460.373C921.496 460.827 921.39 461.38 921.39 462.033C921.39 462.673 921.496 463.227 921.71 463.693C921.923 464.147 922.223 464.493 922.61 464.733C922.996 464.973 923.45 465.093 923.97 465.093ZM931.361 467.113V456.953H933.881V467.113H931.361ZM932.621 454.973C932.328 454.973 932.054 454.9 931.801 454.753C931.548 454.607 931.348 454.413 931.201 454.173C931.054 453.933 930.981 453.667 930.981 453.373C930.981 453.093 931.054 452.833 931.201 452.593C931.348 452.353 931.548 452.167 931.801 452.033C932.054 451.887 932.328 451.813 932.621 451.813C932.928 451.813 933.201 451.887 933.441 452.033C933.694 452.167 933.894 452.353 934.041 452.593C934.188 452.833 934.261 453.093 934.261 453.373C934.261 453.667 934.188 453.933 934.041 454.173C933.894 454.413 933.694 454.607 933.441 454.753C933.201 454.9 932.928 454.973 932.621 454.973ZM936.673 467.113V456.953H938.593L938.773 457.993L939.433 457.633C939.927 457.367 940.42 457.16 940.913 457.013C941.407 456.867 941.893 456.793 942.373 456.793C943.187 456.793 943.847 456.947 944.353 457.253C944.86 457.56 945.233 457.973 945.473 458.493C945.727 459.013 945.853 459.6 945.853 460.253V467.113H943.333V460.873C943.333 460.287 943.187 459.84 942.893 459.533C942.6 459.227 942.12 459.073 941.453 459.073C941.173 459.073 940.9 459.113 940.633 459.193C940.38 459.26 940.113 459.36 939.833 459.493L939.193 459.773V467.113H936.673ZM952.549 467.273C951.549 467.273 950.789 467.053 950.269 466.613C949.749 466.173 949.489 465.46 949.489 464.473V459.153H947.309V457.393L949.489 456.953V454.593L952.009 453.833V456.953H955.169V459.153H952.009V463.673C952.009 464.153 952.089 464.513 952.249 464.753C952.423 464.993 952.816 465.113 953.429 465.113C953.603 465.113 953.783 465.107 953.969 465.093C954.156 465.08 954.356 465.06 954.569 465.033L955.089 464.973L955.369 466.793L954.909 466.913C954.536 467.007 954.136 467.087 953.709 467.153C953.296 467.233 952.909 467.273 952.549 467.273ZM960.441 467.273C959.921 467.273 959.387 467.22 958.841 467.113C958.307 467.007 957.767 466.86 957.221 466.673L956.561 466.453L956.981 464.653L957.541 464.753C958.007 464.833 958.467 464.893 958.921 464.933C959.374 464.973 959.814 464.993 960.241 464.993C960.787 464.993 961.194 464.933 961.461 464.813C961.741 464.68 961.881 464.473 961.881 464.193C961.881 464.02 961.841 463.873 961.761 463.753C961.694 463.633 961.534 463.513 961.281 463.393C961.041 463.273 960.647 463.14 960.101 462.993C959.221 462.753 958.527 462.5 958.021 462.233C957.527 461.953 957.174 461.62 956.961 461.233C956.761 460.847 956.661 460.367 956.661 459.793C956.674 459.1 956.854 458.533 957.201 458.093C957.547 457.653 958.021 457.327 958.621 457.113C959.221 456.9 959.901 456.793 960.661 456.793C961.167 456.793 961.687 456.84 962.221 456.933C962.754 457.013 963.254 457.127 963.721 457.273L964.121 457.413L963.781 459.193L963.441 459.153C962.961 459.087 962.534 459.047 962.161 459.033C961.801 459.007 961.474 458.993 961.181 458.993C960.527 458.993 960.014 459.053 959.641 459.173C959.281 459.28 959.101 459.453 959.101 459.693C959.101 459.867 959.147 460.007 959.241 460.113C959.347 460.207 959.561 460.307 959.881 460.413C960.201 460.52 960.687 460.66 961.341 460.833C962.167 461.047 962.801 461.287 963.241 461.553C963.694 461.82 964.007 462.14 964.181 462.513C964.354 462.887 964.441 463.34 964.441 463.873C964.441 464.673 964.254 465.327 963.881 465.833C963.521 466.327 963.034 466.693 962.421 466.933C961.821 467.16 961.161 467.273 960.441 467.273Z" fill="white"/>
<path d="M744 435H832V484H744C734.059 484 726 475.941 726 466V453C726 443.059 734.059 435 744 435Z" stroke="#4E2E07" stroke-width="4"/>
<path d="M739.92 467.16C739.373 467.16 738.853 467.06 738.36 466.86C737.867 466.647 737.467 466.327 737.16 465.9C736.853 465.473 736.7 464.94 736.7 464.3C736.7 463.447 736.973 462.773 737.52 462.28C738.067 461.773 738.84 461.42 739.84 461.22L742.9 460.58V460.54C742.9 459.953 742.72 459.527 742.36 459.26C742 458.993 741.447 458.86 740.7 458.86C740.273 458.86 739.833 458.887 739.38 458.94C738.94 458.993 738.527 459.06 738.14 459.14L737.68 459.24L737.26 457.58L737.76 457.4C738.427 457.16 739.047 456.98 739.62 456.86C740.207 456.74 740.787 456.68 741.36 456.68C742.56 456.68 743.533 457 744.28 457.64C745.027 458.28 745.4 459.247 745.4 460.54V464.26C745.4 464.673 745.493 464.953 745.68 465.1C745.88 465.233 746.287 465.327 746.9 465.38L746.76 467.04C746.587 467.08 746.42 467.107 746.26 467.12C746.1 467.147 745.96 467.16 745.84 467.16C745.147 467.16 744.593 467.007 744.18 466.7C743.78 466.38 743.48 465.993 743.28 465.54L742.82 465.96C742.38 466.36 741.9 466.66 741.38 466.86C740.873 467.06 740.387 467.16 739.92 467.16ZM740.68 465.06C740.947 465.06 741.233 465.007 741.54 464.9C741.847 464.793 742.153 464.633 742.46 464.42L742.9 464.12V462.06L740.2 462.82C739.813 462.927 739.54 463.08 739.38 463.28C739.22 463.48 739.14 463.713 739.14 463.98C739.14 464.327 739.273 464.593 739.54 464.78C739.807 464.967 740.187 465.06 740.68 465.06ZM752.063 467.16C751.33 467.16 750.683 467.02 750.123 466.74C749.576 466.447 749.116 466.053 748.743 465.56C748.37 465.067 748.083 464.507 747.883 463.88C747.696 463.253 747.603 462.6 747.603 461.92C747.603 461.213 747.696 460.547 747.883 459.92C748.083 459.293 748.376 458.74 748.763 458.26C749.15 457.767 749.616 457.38 750.163 457.1C750.723 456.82 751.363 456.68 752.083 456.68C752.443 456.68 752.83 456.727 753.243 456.82C753.656 456.9 754.05 457.027 754.423 457.2L755.023 457.46V452.24L757.543 451.6V467H755.643L755.443 465.76L754.823 466.18C754.383 466.473 753.93 466.713 753.463 466.9C752.996 467.073 752.53 467.16 752.063 467.16ZM750.163 461.9C750.163 462.54 750.256 463.093 750.443 463.56C750.643 464.013 750.936 464.36 751.323 464.6C751.71 464.84 752.196 464.96 752.783 464.96C753.01 464.96 753.256 464.927 753.523 464.86C753.79 464.78 754.063 464.653 754.343 464.48L755.023 464.06V459.5L754.343 459.2C754.09 459.093 753.83 459.013 753.563 458.96C753.31 458.893 753.056 458.86 752.803 458.86C752.283 458.86 751.823 458.973 751.423 459.2C751.023 459.413 750.71 459.747 750.483 460.2C750.27 460.64 750.163 461.207 750.163 461.9ZM759.989 471.18C759.776 471.18 759.529 471.153 759.249 471.1C758.983 471.047 758.709 470.98 758.429 470.9L758.049 470.78L758.329 468.92L758.629 468.94C758.736 468.953 758.856 468.96 758.989 468.96C759.123 468.973 759.243 468.98 759.349 468.98C759.696 468.98 759.949 468.9 760.109 468.74C760.283 468.593 760.369 468.353 760.369 468.02V456.84H762.889V468.36C762.889 469.293 762.649 469.993 762.169 470.46C761.689 470.94 760.963 471.18 759.989 471.18ZM761.649 454.86C761.356 454.86 761.083 454.787 760.829 454.64C760.576 454.493 760.376 454.3 760.229 454.06C760.083 453.82 760.009 453.553 760.009 453.26C760.009 452.98 760.083 452.72 760.229 452.48C760.376 452.24 760.576 452.053 760.829 451.92C761.083 451.773 761.356 451.7 761.649 451.7C761.956 451.7 762.229 451.773 762.469 451.92C762.723 452.053 762.923 452.24 763.069 452.48C763.216 452.72 763.289 452.98 763.289 453.26C763.289 453.553 763.216 453.82 763.069 454.06C762.923 454.3 762.723 454.493 762.469 454.64C762.229 454.787 761.956 454.86 761.649 454.86ZM770.641 467.16C769.655 467.16 768.748 466.96 767.921 466.56C767.095 466.16 766.428 465.573 765.921 464.8C765.428 464.013 765.181 463.06 765.181 461.94C765.181 461.14 765.315 460.42 765.581 459.78C765.848 459.127 766.221 458.573 766.701 458.12C767.181 457.653 767.728 457.3 768.341 457.06C768.968 456.807 769.635 456.68 770.341 456.68C771.355 456.68 772.208 456.9 772.901 457.34C773.595 457.78 774.115 458.387 774.461 459.16C774.821 459.933 775.001 460.813 775.001 461.8V462.6H767.801C767.895 463.147 768.081 463.593 768.361 463.94C768.641 464.287 769.001 464.547 769.441 464.72C769.881 464.88 770.375 464.96 770.921 464.96C771.268 464.96 771.628 464.933 772.001 464.88C772.375 464.813 772.748 464.727 773.121 464.62L774.021 464.36L774.701 466.02L773.921 466.4C773.388 466.653 772.841 466.847 772.281 466.98C771.721 467.1 771.175 467.16 770.641 467.16ZM767.881 460.76H772.601C772.495 460.147 772.255 459.673 771.881 459.34C771.508 458.993 770.995 458.82 770.341 458.82C769.915 458.82 769.535 458.9 769.201 459.06C768.881 459.207 768.608 459.427 768.381 459.72C768.155 460.013 767.988 460.36 767.881 460.76ZM781.807 467.16C780.82 467.16 779.934 466.96 779.147 466.56C778.36 466.147 777.74 465.553 777.287 464.78C776.834 463.993 776.607 463.04 776.607 461.92C776.607 460.8 776.84 459.853 777.307 459.08C777.787 458.293 778.42 457.7 779.207 457.3C779.994 456.887 780.867 456.68 781.827 456.68C782.294 456.68 782.74 456.727 783.167 456.82C783.607 456.9 784.007 457.013 784.367 457.16L784.927 457.38L784.467 459.22L783.787 459.06C783.494 458.993 783.2 458.947 782.907 458.92C782.614 458.893 782.34 458.88 782.087 458.88C781.514 458.88 781.007 459 780.567 459.24C780.127 459.467 779.78 459.807 779.527 460.26C779.287 460.7 779.167 461.253 779.167 461.92C779.167 462.573 779.294 463.127 779.547 463.58C779.8 464.033 780.147 464.373 780.587 464.6C781.04 464.827 781.554 464.94 782.127 464.94C782.394 464.94 782.68 464.927 782.987 464.9C783.307 464.86 783.634 464.807 783.967 464.74L784.587 464.6L785.067 466.4L784.547 466.62C784.094 466.807 783.627 466.94 783.147 467.02C782.68 467.113 782.234 467.16 781.807 467.16ZM790.952 467.16C789.952 467.16 789.192 466.94 788.672 466.5C788.152 466.06 787.892 465.347 787.892 464.36V459.04H785.712V457.28L787.892 456.84V454.48L790.412 453.72V456.84H793.572V459.04H790.412V463.56C790.412 464.04 790.492 464.4 790.652 464.64C790.825 464.88 791.218 465 791.832 465C792.005 465 792.185 464.993 792.372 464.98C792.558 464.967 792.758 464.947 792.972 464.92L793.492 464.86L793.772 466.68L793.312 466.8C792.938 466.893 792.538 466.973 792.112 467.04C791.698 467.12 791.312 467.16 790.952 467.16ZM795.603 467V456.84H798.123V467H795.603ZM796.863 454.86C796.57 454.86 796.296 454.787 796.043 454.64C795.79 454.493 795.59 454.3 795.443 454.06C795.296 453.82 795.223 453.553 795.223 453.26C795.223 452.98 795.296 452.72 795.443 452.48C795.59 452.24 795.79 452.053 796.043 451.92C796.296 451.773 796.57 451.7 796.863 451.7C797.17 451.7 797.443 451.773 797.683 451.92C797.936 452.053 798.136 452.24 798.283 452.48C798.43 452.72 798.503 452.98 798.503 453.26C798.503 453.553 798.43 453.82 798.283 454.06C798.136 454.3 797.936 454.493 797.683 454.64C797.443 454.787 797.17 454.86 796.863 454.86ZM803.976 467.12L799.776 456.84H802.576L805.216 463.96H805.256L807.876 456.84H810.496L806.316 467.12H803.976ZM816.403 467.16C815.416 467.16 814.51 466.96 813.683 466.56C812.856 466.16 812.19 465.573 811.683 464.8C811.19 464.013 810.943 463.06 810.943 461.94C810.943 461.14 811.076 460.42 811.343 459.78C811.61 459.127 811.983 458.573 812.463 458.12C812.943 457.653 813.49 457.3 814.103 457.06C814.73 456.807 815.396 456.68 816.103 456.68C817.116 456.68 817.97 456.9 818.663 457.34C819.356 457.78 819.876 458.387 820.223 459.16C820.583 459.933 820.763 460.813 820.763 461.8V462.6H813.563C813.656 463.147 813.843 463.593 814.123 463.94C814.403 464.287 814.763 464.547 815.203 464.72C815.643 464.88 816.136 464.96 816.683 464.96C817.03 464.96 817.39 464.933 817.763 464.88C818.136 464.813 818.51 464.727 818.883 464.62L819.783 464.36L820.463 466.02L819.683 466.4C819.15 466.653 818.603 466.847 818.043 466.98C817.483 467.1 816.936 467.16 816.403 467.16ZM813.643 460.76H818.363C818.256 460.147 818.016 459.673 817.643 459.34C817.27 458.993 816.756 458.82 816.103 458.82C815.676 458.82 815.296 458.9 814.963 459.06C814.643 459.207 814.37 459.427 814.143 459.72C813.916 460.013 813.75 460.36 813.643 460.76Z" fill="#4E2E07"/>
</g>
<g clip-path="url(#paint0_diamond_43_3_clip_path)" data-figma-skip-parse="true"><g transform="matrix(-0.0763119 0.0754034 -0.0840748 -0.0850877 273.295 257.539)"><rect x="0" y="0" width="1318.7" height="644.835" fill="url(#paint0_diamond_43_3)" opacity="1" shape-rendering="crispEdges"/><rect x="0" y="0" width="1318.7" height="644.835" transform="scale(1 -1)" fill="url(#paint0_diamond_43_3)" opacity="1" shape-rendering="crispEdges"/><rect x="0" y="0" width="1318.7" height="644.835" transform="scale(-1 1)" fill="url(#paint0_diamond_43_3)" opacity="1" shape-rendering="crispEdges"/><rect x="0" y="0" width="1318.7" height="644.835" transform="scale(-1)" fill="url(#paint0_diamond_43_3)" opacity="1" shape-rendering="crispEdges"/></g></g><path d="M172 321.132L218.332 251.18L281.471 309.776L240.136 348.386L195.166 354.292L172 321.132Z" data-figma-gradient-fill="{&#34;type&#34;:&#34;GRADIENT_DIAMOND&#34;,&#34;stops&#34;:[{&#34;color&#34;:{&#34;r&#34;:0.0,&#34;g&#34;:0.0,&#34;b&#34;:0.0,&#34;a&#34;:1.0},&#34;position&#34;:0.0},{&#34;color&#34;:{&#34;r&#34;:0.0,&#34;g&#34;:0.0,&#34;b&#34;:0.0,&#34;a&#34;:0.0},&#34;position&#34;:1.0}],&#34;stopsVar&#34;:[{&#34;color&#34;:{&#34;r&#34;:0.0,&#34;g&#34;:0.0,&#34;b&#34;:0.0,&#34;a&#34;:1.0},&#34;position&#34;:0.0},{&#34;color&#34;:{&#34;r&#34;:0.0,&#34;g&#34;:0.0,&#34;b&#34;:0.0,&#34;a&#34;:0.0},&#34;position&#34;:1.0}],&#34;transform&#34;:{&#34;m00&#34;:-152.62373352050781,&#34;m01&#34;:-168.14959716796875,&#34;m02&#34;:433.68157958984375,&#34;m10&#34;:150.80677795410156,&#34;m11&#34;:-170.17539978027344,&#34;m12&#34;:267.22332763671875},&#34;opacity&#34;:1.0,&#34;blendMode&#34;:&#34;NORMAL&#34;,&#34;visible&#34;:true}"/>
<g clip-path="url(#paint1_diamond_43_3_clip_path)" data-figma-skip-parse="true"><g transform="matrix(-0.0763119 0.0754034 -0.0840748 -0.0850877 347.295 257.539)"><rect x="0" y="0" width="1318.7" height="644.835" fill="url(#paint1_diamond_43_3)" opacity="1" shape-rendering="crispEdges"/><rect x="0" y="0" width="1318.7" height="644.835" transform="scale(1 -1)" fill="url(#paint1_diamond_43_3)" opacity="1" shape-rendering="crispEdges"/><rect x="0" y="0" width="1318.7" height="644.835" transform="scale(-1 1)" fill="url(#paint1_diamond_43_3)" opacity="1" shape-rendering="crispEdges"/><rect x="0" y="0" width="1318.7" height="644.835" transform="scale(-1)" fill="url(#paint1_diamond_43_3)" opacity="1" shape-rendering="crispEdges"/></g></g><path d="M246 321.132L292.332 251.18L355.471 309.776L314.136 348.386L269.166 354.292L246 321.132Z" data-figma-gradient-fill="{&#34;type&#34;:&#34;GRADIENT_DIAMOND&#34;,&#34;stops&#34;:[{&#34;color&#34;:{&#34;r&#34;:0.0,&#34;g&#34;:0.0,&#34;b&#34;:0.0,&#34;a&#34;:1.0},&#34;position&#34;:0.0},{&#34;color&#34;:{&#34;r&#34;:0.0,&#34;g&#34;:0.0,&#34;b&#34;:0.0,&#34;a&#34;:0.0},&#34;position&#34;:1.0}],&#34;stopsVar&#34;:[{&#34;color&#34;:{&#34;r&#34;:0.0,&#34;g&#34;:0.0,&#34;b&#34;:0.0,&#34;a&#34;:1.0},&#34;position&#34;:0.0},{&#34;color&#34;:{&#34;r&#34;:0.0,&#34;g&#34;:0.0,&#34;b&#34;:0.0,&#34;a&#34;:0.0},&#34;position&#34;:1.0}],&#34;transform&#34;:{&#34;m00&#34;:-152.62373352050781,&#34;m01&#34;:-168.14959716796875,&#34;m02&#34;:507.68157958984375,&#34;m10&#34;:150.80677795410156,&#34;m11&#34;:-170.17539978027344,&#34;m12&#34;:267.22332763671875},&#34;opacity&#34;:1.0,&#34;blendMode&#34;:&#34;NORMAL&#34;,&#34;visible&#34;:true}"/>
<g clip-path="url(#paint2_diamond_43_3_clip_path)" data-figma-skip-parse="true"><g transform="matrix(-0.0763119 0.0754034 -0.0840748 -0.0850877 421.295 257.539)"><rect x="0" y="0" width="1318.7" height="644.835" fill="url(#paint2_diamond_43_3)" opacity="1" shape-rendering="crispEdges"/><rect x="0" y="0" width="1318.7" height="644.835" transform="scale(1 -1)" fill="url(#paint2_diamond_43_3)" opacity="1" shape-rendering="crispEdges"/><rect x="0" y="0" width="1318.7" height="644.835" transform="scale(-1 1)" fill="url(#paint2_diamond_43_3)" opacity="1" shape-rendering="crispEdges"/><rect x="0" y="0" width="1318.7" height="644.835" transform="scale(-1)" fill="url(#paint2_diamond_43_3)" opacity="1" shape-rendering="crispEdges"/></g></g><path d="M320 321.132L366.332 251.18L429.471 309.776L388.136 348.386L343.166 354.292L320 321.132Z" data-figma-gradient-fill="{&#34;type&#34;:&#34;GRADIENT_DIAMOND&#34;,&#34;stops&#34;:[{&#34;color&#34;:{&#34;r&#34;:0.0,&#34;g&#34;:0.0,&#34;b&#34;:0.0,&#34;a&#34;:1.0},&#34;position&#34;:0.0},{&#34;color&#34;:{&#34;r&#34;:0.0,&#34;g&#34;:0.0,&#34;b&#34;:0.0,&#34;a&#34;:0.0},&#34;position&#34;:1.0}],&#34;stopsVar&#34;:[{&#34;color&#34;:{&#34;r&#34;:0.0,&#34;g&#34;:0.0,&#34;b&#34;:0.0,&#34;a&#34;:1.0},&#34;position&#34;:0.0},{&#34;color&#34;:{&#34;r&#34;:0.0,&#34;g&#34;:0.0,&#34;b&#34;:0.0,&#34;a&#34;:0.0},&#34;position&#34;:1.0}],&#34;transform&#34;:{&#34;m00&#34;:-152.62373352050781,&#34;m01&#34;:-168.14959716796875,&#34;m02&#34;:581.68157958984375,&#34;m10&#34;:150.80677795410156,&#34;m11&#34;:-170.17539978027344,&#34;m12&#34;:267.22332763671875},&#34;opacity&#34;:1.0,&#34;blendMode&#34;:&#34;NORMAL&#34;,&#34;visible&#34;:true}"/>
<g clip-path="url(#paint3_diamond_43_3_clip_path)" data-figma-skip-parse="true"><g transform="matrix(-0.0763119 0.0754034 -0.0840748 -0.0850877 495.295 257.539)"><rect x="0" y="0" width="1318.7" height="644.835" fill="url(#paint3_diamond_43_3)" opacity="1" shape-rendering="crispEdges"/><rect x="0" y="0" width="1318.7" height="644.835" transform="scale(1 -1)" fill="url(#paint3_diamond_43_3)" opacity="1" shape-rendering="crispEdges"/><rect x="0" y="0" width="1318.7" height="644.835" transform="scale(-1 1)" fill="url(#paint3_diamond_43_3)" opacity="1" shape-rendering="crispEdges"/><rect x="0" y="0" width="1318.7" height="644.835" transform="scale(-1)" fill="url(#paint3_diamond_43_3)" opacity="1" shape-rendering="crispEdges"/></g></g><path d="M394 321.132L440.332 251.18L503.471 309.776L462.136 348.386L417.166 354.292L394 321.132Z" data-figma-gradient-fill="{&#34;type&#34;:&#34;GRADIENT_DIAMOND&#34;,&#34;stops&#34;:[{&#34;color&#34;:{&#34;r&#34;:0.0,&#34;g&#34;:0.0,&#34;b&#34;:0.0,&#34;a&#34;:1.0},&#34;position&#34;:0.0},{&#34;color&#34;:{&#34;r&#34;:0.0,&#34;g&#34;:0.0,&#34;b&#34;:0.0,&#34;a&#34;:0.0},&#34;position&#34;:1.0}],&#34;stopsVar&#34;:[{&#34;color&#34;:{&#34;r&#34;:0.0,&#34;g&#34;:0.0,&#34;b&#34;:0.0,&#34;a&#34;:1.0},&#34;position&#34;:0.0},{&#34;color&#34;:{&#34;r&#34;:0.0,&#34;g&#34;:0.0,&#34;b&#34;:0.0,&#34;a&#34;:0.0},&#34;position&#34;:1.0}],&#34;transform&#34;:{&#34;m00&#34;:-152.62373352050781,&#34;m01&#34;:-168.14959716796875,&#34;m02&#34;:655.68157958984375,&#34;m10&#34;:150.80677795410156,&#34;m11&#34;:-170.17539978027344,&#34;m12&#34;:267.22332763671875},&#34;opacity&#34;:1.0,&#34;blendMode&#34;:&#34;NORMAL&#34;,&#34;visible&#34;:true}"/>
<g clip-path="url(#paint4_diamond_43_3_clip_path)" data-figma-skip-parse="true"><g transform="matrix(-0.0763119 0.0754034 -0.0840748 -0.0850877 569.295 257.539)"><rect x="0" y="0" width="1318.7" height="644.835" fill="url(#paint4_diamond_43_3)" opacity="1" shape-rendering="crispEdges"/><rect x="0" y="0" width="1318.7" height="644.835" transform="scale(1 -1)" fill="url(#paint4_diamond_43_3)" opacity="1" shape-rendering="crispEdges"/><rect x="0" y="0" width="1318.7" height="644.835" transform="scale(-1 1)" fill="url(#paint4_diamond_43_3)" opacity="1" shape-rendering="crispEdges"/><rect x="0" y="0" width="1318.7" height="644.835" transform="scale(-1)" fill="url(#paint4_diamond_43_3)" opacity="1" shape-rendering="crispEdges"/></g></g><path d="M468 321.132L514.332 251.18L577.471 309.776L536.136 348.386L491.166 354.292L468 321.132Z" data-figma-gradient-fill="{&#34;type&#34;:&#34;GRADIENT_DIAMOND&#34;,&#34;stops&#34;:[{&#34;color&#34;:{&#34;r&#34;:0.0,&#34;g&#34;:0.0,&#34;b&#34;:0.0,&#34;a&#34;:1.0},&#34;position&#34;:0.0},{&#34;color&#34;:{&#34;r&#34;:0.0,&#34;g&#34;:0.0,&#34;b&#34;:0.0,&#34;a&#34;:0.0},&#34;position&#34;:1.0}],&#34;stopsVar&#34;:[{&#34;color&#34;:{&#34;r&#34;:0.0,&#34;g&#34;:0.0,&#34;b&#34;:0.0,&#34;a&#34;:1.0},&#34;position&#34;:0.0},{&#34;color&#34;:{&#34;r&#34;:0.0,&#34;g&#34;:0.0,&#34;b&#34;:0.0,&#34;a&#34;:0.0},&#34;position&#34;:1.0}],&#34;transform&#34;:{&#34;m00&#34;:-152.62373352050781,&#34;m01&#34;:-168.14959716796875,&#34;m02&#34;:729.68157958984375,&#34;m10&#34;:150.80677795410156,&#34;m11&#34;:-170.17539978027344,&#34;m12&#34;:267.22332763671875},&#34;opacity&#34;:1.0,&#34;blendMode&#34;:&#34;NORMAL&#34;,&#34;visible&#34;:true}"/>
<g clip-path="url(#paint5_diamond_43_3_clip_path)" data-figma-skip-parse="true"><g transform="matrix(-0.0763119 0.0754034 -0.0840748 -0.0850877 649.295 257.359)"><rect x="0" y="0" width="1318.7" height="644.835" fill="url(#paint5_diamond_43_3)" opacity="1" shape-rendering="crispEdges"/><rect x="0" y="0" width="1318.7" height="644.835" transform="scale(1 -1)" fill="url(#paint5_diamond_43_3)" opacity="1" shape-rendering="crispEdges"/><rect x="0" y="0" width="1318.7" height="644.835" transform="scale(-1 1)" fill="url(#paint5_diamond_43_3)" opacity="1" shape-rendering="crispEdges"/><rect x="0" y="0" width="1318.7" height="644.835" transform="scale(-1)" fill="url(#paint5_diamond_43_3)" opacity="1" shape-rendering="crispEdges"/></g></g><path d="M548 320.953L594.332 251L657.471 309.597L616.136 348.207L571.166 354.112L548 320.953Z" data-figma-gradient-fill="{&#34;type&#34;:&#34;GRADIENT_DIAMOND&#34;,&#34;stops&#34;:[{&#34;color&#34;:{&#34;r&#34;:0.0,&#34;g&#34;:0.0,&#34;b&#34;:0.0,&#34;a&#34;:1.0},&#34;position&#34;:0.0},{&#34;color&#34;:{&#34;r&#34;:0.0,&#34;g&#34;:0.0,&#34;b&#34;:0.0,&#34;a&#34;:0.0},&#34;position&#34;:1.0}],&#34;stopsVar&#34;:[{&#34;color&#34;:{&#34;r&#34;:0.0,&#34;g&#34;:0.0,&#34;b&#34;:0.0,&#34;a&#34;:1.0},&#34;position&#34;:0.0},{&#34;color&#34;:{&#34;r&#34;:0.0,&#34;g&#34;:0.0,&#34;b&#34;:0.0,&#34;a&#34;:0.0},&#34;position&#34;:1.0}],&#34;transform&#34;:{&#34;m00&#34;:-152.62373352050781,&#34;m01&#34;:-168.14959716796875,&#34;m02&#34;:809.68157958984375,&#34;m10&#34;:150.80677795410156,&#34;m11&#34;:-170.17539978027344,&#34;m12&#34;:267.04364013671875},&#34;opacity&#34;:1.0,&#34;blendMode&#34;:&#34;NORMAL&#34;,&#34;visible&#34;:true}"/>
<g clip-path="url(#paint6_diamond_43_3_clip_path)" data-figma-skip-parse="true"><g transform="matrix(-0.0763119 0.0754034 -0.0840748 -0.0850877 723.295 257.359)"><rect x="0" y="0" width="1318.7" height="644.835" fill="url(#paint6_diamond_43_3)" opacity="1" shape-rendering="crispEdges"/><rect x="0" y="0" width="1318.7" height="644.835" transform="scale(1 -1)" fill="url(#paint6_diamond_43_3)" opacity="1" shape-rendering="crispEdges"/><rect x="0" y="0" width="1318.7" height="644.835" transform="scale(-1 1)" fill="url(#paint6_diamond_43_3)" opacity="1" shape-rendering="crispEdges"/><rect x="0" y="0" width="1318.7" height="644.835" transform="scale(-1)" fill="url(#paint6_diamond_43_3)" opacity="1" shape-rendering="crispEdges"/></g></g><path d="M622 320.953L668.332 251L731.471 309.597L690.136 348.207L645.166 354.112L622 320.953Z" data-figma-gradient-fill="{&#34;type&#34;:&#34;GRADIENT_DIAMOND&#34;,&#34;stops&#34;:[{&#34;color&#34;:{&#34;r&#34;:0.0,&#34;g&#34;:0.0,&#34;b&#34;:0.0,&#34;a&#34;:1.0},&#34;position&#34;:0.0},{&#34;color&#34;:{&#34;r&#34;:0.0,&#34;g&#34;:0.0,&#34;b&#34;:0.0,&#34;a&#34;:0.0},&#34;position&#34;:1.0}],&#34;stopsVar&#34;:[{&#34;color&#34;:{&#34;r&#34;:0.0,&#34;g&#34;:0.0,&#34;b&#34;:0.0,&#34;a&#34;:1.0},&#34;position&#34;:0.0},{&#34;color&#34;:{&#34;r&#34;:0.0,&#34;g&#34;:0.0,&#34;b&#34;:0.0,&#34;a&#34;:0.0},&#34;position&#34;:1.0}],&#34;transform&#34;:{&#34;m00&#34;:-152.62373352050781,&#34;m01&#34;:-168.14959716796875,&#34;m02&#34;:883.68157958984375,&#34;m10&#34;:150.80677795410156,&#34;m11&#34;:-170.17539978027344,&#34;m12&#34;:267.04364013671875},&#34;opacity&#34;:1.0,&#34;blendMode&#34;:&#34;NORMAL&#34;,&#34;visible&#34;:true}"/>
<g clip-path="url(#paint7_diamond_43_3_clip_path)" data-figma-skip-parse="true"><g transform="matrix(-0.0763119 0.0754034 -0.0840748 -0.0850877 797.295 257.359)"><rect x="0" y="0" width="1318.7" height="644.835" fill="url(#paint7_diamond_43_3)" opacity="1" shape-rendering="crispEdges"/><rect x="0" y="0" width="1318.7" height="644.835" transform="scale(1 -1)" fill="url(#paint7_diamond_43_3)" opacity="1" shape-rendering="crispEdges"/><rect x="0" y="0" width="1318.7" height="644.835" transform="scale(-1 1)" fill="url(#paint7_diamond_43_3)" opacity="1" shape-rendering="crispEdges"/><rect x="0" y="0" width="1318.7" height="644.835" transform="scale(-1)" fill="url(#paint7_diamond_43_3)" opacity="1" shape-rendering="crispEdges"/></g></g><path d="M696 320.953L742.332 251L805.471 309.597L764.136 348.207L719.166 354.112L696 320.953Z" data-figma-gradient-fill="{&#34;type&#34;:&#34;GRADIENT_DIAMOND&#34;,&#34;stops&#34;:[{&#34;color&#34;:{&#34;r&#34;:0.0,&#34;g&#34;:0.0,&#34;b&#34;:0.0,&#34;a&#34;:1.0},&#34;position&#34;:0.0},{&#34;color&#34;:{&#34;r&#34;:0.0,&#34;g&#34;:0.0,&#34;b&#34;:0.0,&#34;a&#34;:0.0},&#34;position&#34;:1.0}],&#34;stopsVar&#34;:[{&#34;color&#34;:{&#34;r&#34;:0.0,&#34;g&#34;:0.0,&#34;b&#34;:0.0,&#34;a&#34;:1.0},&#34;position&#34;:0.0},{&#34;color&#34;:{&#34;r&#34;:0.0,&#34;g&#34;:0.0,&#34;b&#34;:0.0,&#34;a&#34;:0.0},&#34;position&#34;:1.0}],&#34;transform&#34;:{&#34;m00&#34;:-152.62373352050781,&#34;m01&#34;:-168.14959716796875,&#34;m02&#34;:957.68157958984375,&#34;m10&#34;:150.80677795410156,&#34;m11&#34;:-170.17539978027344,&#34;m12&#34;:267.04364013671875},&#34;opacity&#34;:1.0,&#34;blendMode&#34;:&#34;NORMAL&#34;,&#34;visible&#34;:true}"/>
<g clip-path="url(#paint8_diamond_43_3_clip_path)" data-figma-skip-parse="true"><g transform="matrix(-0.0763119 0.0754034 -0.0840748 -0.0850877 871.295 257.359)"><rect x="0" y="0" width="1318.7" height="644.835" fill="url(#paint8_diamond_43_3)" opacity="1" shape-rendering="crispEdges"/><rect x="0" y="0" width="1318.7" height="644.835" transform="scale(1 -1)" fill="url(#paint8_diamond_43_3)" opacity="1" shape-rendering="crispEdges"/><rect x="0" y="0" width="1318.7" height="644.835" transform="scale(-1 1)" fill="url(#paint8_diamond_43_3)" opacity="1" shape-rendering="crispEdges"/><rect x="0" y="0" width="1318.7" height="644.835" transform="scale(-1)" fill="url(#paint8_diamond_43_3)" opacity="1" shape-rendering="crispEdges"/></g></g><path d="M770 320.953L816.332 251L879.471 309.597L838.136 348.207L793.166 354.112L770 320.953Z" data-figma-gradient-fill="{&#34;type&#34;:&#34;GRADIENT_DIAMOND&#34;,&#34;stops&#34;:[{&#34;color&#34;:{&#34;r&#34;:0.0,&#34;g&#34;:0.0,&#34;b&#34;:0.0,&#34;a&#34;:1.0},&#34;position&#34;:0.0},{&#34;color&#34;:{&#34;r&#34;:0.0,&#34;g&#34;:0.0,&#34;b&#34;:0.0,&#34;a&#34;:0.0},&#34;position&#34;:1.0}],&#34;stopsVar&#34;:[{&#34;color&#34;:{&#34;r&#34;:0.0,&#34;g&#34;:0.0,&#34;b&#34;:0.0,&#34;a&#34;:1.0},&#34;position&#34;:0.0},{&#34;color&#34;:{&#34;r&#34;:0.0,&#34;g&#34;:0.0,&#34;b&#34;:0.0,&#34;a&#34;:0.0},&#34;position&#34;:1.0}],&#34;transform&#34;:{&#34;m00&#34;:-152.62373352050781,&#34;m01&#34;:-168.14959716796875,&#34;m02&#34;:1031.6816406250,&#34;m10&#34;:150.80677795410156,&#34;m11&#34;:-170.17539978027344,&#34;m12&#34;:267.04364013671875},&#34;opacity&#34;:1.0,&#34;blendMode&#34;:&#34;NORMAL&#34;,&#34;visible&#34;:true}"/>
<g clip-path="url(#paint9_diamond_43_3_clip_path)" data-figma-skip-parse="true"><g transform="matrix(-0.0763119 0.0754034 -0.0840748 -0.0850877 945.295 257.359)"><rect x="0" y="0" width="1318.7" height="644.835" fill="url(#paint9_diamond_43_3)" opacity="1" shape-rendering="crispEdges"/><rect x="0" y="0" width="1318.7" height="644.835" transform="scale(1 -1)" fill="url(#paint9_diamond_43_3)" opacity="1" shape-rendering="crispEdges"/><rect x="0" y="0" width="1318.7" height="644.835" transform="scale(-1 1)" fill="url(#paint9_diamond_43_3)" opacity="1" shape-rendering="crispEdges"/><rect x="0" y="0" width="1318.7" height="644.835" transform="scale(-1)" fill="url(#paint9_diamond_43_3)" opacity="1" shape-rendering="crispEdges"/></g></g><path d="M844 320.953L890.332 251L953.471 309.597L912.136 348.207L867.166 354.112L844 320.953Z" data-figma-gradient-fill="{&#34;type&#34;:&#34;GRADIENT_DIAMOND&#34;,&#34;stops&#34;:[{&#34;color&#34;:{&#34;r&#34;:0.0,&#34;g&#34;:0.0,&#34;b&#34;:0.0,&#34;a&#34;:1.0},&#34;position&#34;:0.0},{&#34;color&#34;:{&#34;r&#34;:0.0,&#34;g&#34;:0.0,&#34;b&#34;:0.0,&#34;a&#34;:0.0},&#34;position&#34;:1.0}],&#34;stopsVar&#34;:[{&#34;color&#34;:{&#34;r&#34;:0.0,&#34;g&#34;:0.0,&#34;b&#34;:0.0,&#34;a&#34;:1.0},&#34;position&#34;:0.0},{&#34;color&#34;:{&#34;r&#34;:0.0,&#34;g&#34;:0.0,&#34;b&#34;:0.0,&#34;a&#34;:0.0},&#34;position&#34;:1.0}],&#34;transform&#34;:{&#34;m00&#34;:-152.62373352050781,&#34;m01&#34;:-168.14959716796875,&#34;m02&#34;:1105.6816406250,&#34;m10&#34;:150.80677795410156,&#34;m11&#34;:-170.17539978027344,&#34;m12&#34;:267.04364013671875},&#34;opacity&#34;:1.0,&#34;blendMode&#34;:&#34;NORMAL&#34;,&#34;visible&#34;:true}"/>
<rect x="215.153" y="248" width="67.2271" height="67.2271" rx="12" fill="#FEF9D9"/>
<rect x="214.653" y="247.5" width="68.2271" height="68.2271" rx="12.5" stroke="#FEF9D9" stroke-opacity="0.5"/>
<path d="M234.824 264.909H241.713L248.347 277.438H248.631L255.264 264.909H262.153L251.543 283.716V294H245.435V283.716L234.824 264.909Z" fill="#1C2542"/>
<path d="M266.959 300.443V298.021L273.031 288.455H275.119V291.807H273.884L270.055 297.865V297.979H278.685V300.443H266.959ZM273.94 303V299.705L273.997 298.632V288.455H276.881V303H273.94Z" fill="#1C2542"/>
<rect x="591.153" y="248" width="67.2271" height="67.2271" rx="12" fill="#FEF9D9"/>
<rect x="590.653" y="247.5" width="68.2271" height="68.2271" rx="12.5" stroke="#FEF9D9" stroke-opacity="0.5"/>
<path d="M618.509 283.886H623.736L626.364 287.267L628.949 290.278L633.821 296.386H628.082L624.73 292.267L623.011 289.824L618.509 283.886ZM634.261 279.455C634.261 282.627 633.66 285.326 632.457 287.551C631.264 289.777 629.635 291.476 627.571 292.651C625.516 293.815 623.205 294.398 620.639 294.398C618.054 294.398 615.734 293.811 613.679 292.636C611.624 291.462 610 289.762 608.807 287.537C607.614 285.312 607.017 282.617 607.017 279.455C607.017 276.282 607.614 273.583 608.807 271.358C610 269.133 611.624 267.437 613.679 266.273C615.734 265.098 618.054 264.511 620.639 264.511C623.205 264.511 625.516 265.098 627.571 266.273C629.635 267.437 631.264 269.133 632.457 271.358C633.66 273.583 634.261 276.282 634.261 279.455ZM628.026 279.455C628.026 277.4 627.718 275.667 627.102 274.256C626.496 272.845 625.639 271.775 624.531 271.045C623.423 270.316 622.126 269.952 620.639 269.952C619.152 269.952 617.855 270.316 616.747 271.045C615.639 271.775 614.777 272.845 614.162 274.256C613.556 275.667 613.253 277.4 613.253 279.455C613.253 281.509 613.556 283.242 614.162 284.653C614.777 286.064 615.639 287.134 616.747 287.864C617.855 288.593 619.152 288.957 620.639 288.957C622.126 288.957 623.423 288.593 624.531 287.864C625.639 287.134 626.496 286.064 627.102 284.653C627.718 283.242 628.026 281.509 628.026 279.455Z" fill="#1C2542"/>
<path d="M641.507 288.455V303H638.432V291.374H638.347L635.016 293.462V290.734L638.616 288.455H641.507ZM650.667 303.32C649.446 303.315 648.395 303.014 647.514 302.418C646.638 301.821 645.963 300.957 645.49 299.825C645.021 298.694 644.789 297.332 644.794 295.741C644.794 294.155 645.028 292.804 645.497 291.686C645.97 290.569 646.645 289.719 647.521 289.136C648.402 288.549 649.45 288.256 650.667 288.256C651.884 288.256 652.931 288.549 653.806 289.136C654.687 289.723 655.364 290.576 655.838 291.693C656.311 292.806 656.546 294.155 656.541 295.741C656.541 297.337 656.304 298.701 655.831 299.832C655.362 300.964 654.69 301.828 653.814 302.425C652.938 303.021 651.889 303.32 650.667 303.32ZM650.667 300.77C651.501 300.77 652.166 300.351 652.663 299.513C653.16 298.675 653.406 297.418 653.402 295.741C653.402 294.638 653.288 293.72 653.061 292.986C652.838 292.252 652.521 291.7 652.109 291.331C651.702 290.962 651.221 290.777 650.667 290.777C649.839 290.777 649.176 291.191 648.679 292.02C648.181 292.848 647.931 294.089 647.926 295.741C647.926 296.859 648.037 297.792 648.26 298.54C648.487 299.283 648.806 299.842 649.218 300.216C649.63 300.585 650.113 300.77 650.667 300.77Z" fill="#1C2542"/>
<rect x="666" y="248" width="67.2271" height="67.2271" rx="12" fill="#FEF9D9"/>
<rect x="665.5" y="247.5" width="68.2271" height="68.2271" rx="12.5" stroke="#FEF9D9" stroke-opacity="0.5"/>
<path d="M692.39 294H685.799L695.842 264.909H703.768L713.796 294H707.205L699.918 271.557H699.691L692.39 294ZM691.978 282.565H707.546V287.366H691.978V282.565Z" fill="#1C2542"/>
<path d="M724.355 288.455V303H721.279V291.374H721.194L717.863 293.462V290.734L721.464 288.455H724.355Z" fill="#1C2542"/>
<rect x="740.848" y="248" width="67.2271" height="67.2271" rx="12" fill="#FEF9D9"/>
<rect x="740.348" y="247.5" width="68.2271" height="68.2271" rx="12.5" stroke="#FEF9D9" stroke-opacity="0.5"/>
<path d="M780.192 264.909H786.343V283.801C786.343 285.922 785.836 287.778 784.823 289.369C783.819 290.96 782.413 292.201 780.604 293.091C778.796 293.972 776.689 294.412 774.283 294.412C771.869 294.412 769.757 293.972 767.948 293.091C766.139 292.201 764.733 290.96 763.729 289.369C762.726 287.778 762.224 285.922 762.224 283.801V264.909H768.374V283.276C768.374 284.384 768.616 285.368 769.099 286.23C769.591 287.092 770.282 287.769 771.173 288.261C772.063 288.754 773.1 289 774.283 289C775.477 289 776.513 288.754 777.394 288.261C778.284 287.769 778.971 287.092 779.454 286.23C779.946 285.368 780.192 284.384 780.192 283.276V264.909Z" fill="#1C2542"/>
<path d="M799.202 288.455V303H796.127V291.374H796.042L792.711 293.462V290.734L796.312 288.455H799.202Z" fill="#1C2542"/>
<rect x="815.695" y="248" width="67.2271" height="67.2271" rx="12" fill="#FEF9D9"/>
<rect x="815.195" y="247.5" width="68.2271" height="68.2271" rx="12.5" stroke="#FEF9D9" stroke-opacity="0.5"/>
<path d="M837.071 294V264.909H843.221V277.736H843.605L854.074 264.909H861.446L850.65 277.935L861.574 294H854.216L846.247 282.04L843.221 285.733V294H837.071Z" fill="#1C2542"/>
<path d="M873.034 303.199C872.03 303.199 871.135 303.014 870.349 302.645C869.568 302.276 868.948 301.767 868.489 301.118C868.029 300.469 867.79 299.726 867.771 298.888H870.754C870.787 299.451 871.024 299.908 871.464 300.259C871.905 300.609 872.428 300.784 873.034 300.784C873.517 300.784 873.943 300.678 874.312 300.464C874.686 300.247 874.978 299.946 875.186 299.562C875.399 299.174 875.506 298.729 875.506 298.227C875.506 297.716 875.397 297.266 875.179 296.878C874.966 296.49 874.67 296.187 874.291 295.969C873.912 295.751 873.479 295.64 872.991 295.635C872.565 295.635 872.151 295.723 871.748 295.898C871.351 296.073 871.041 296.312 870.818 296.615L868.084 296.125L868.773 288.455H877.665V290.969H871.308L870.932 294.612H871.017C871.273 294.252 871.658 293.954 872.175 293.717C872.691 293.481 873.268 293.362 873.908 293.362C874.783 293.362 875.565 293.568 876.251 293.98C876.938 294.392 877.48 294.958 877.878 295.678C878.275 296.393 878.472 297.216 878.467 298.149C878.472 299.129 878.245 300 877.785 300.763C877.331 301.52 876.694 302.117 875.875 302.553C875.06 302.983 874.114 303.199 873.034 303.199Z" fill="#1C2542"/>
<rect x="890.542" y="248" width="67.2271" height="67.2271" rx="12" fill="#FEF9D9"/>
<rect x="890.042" y="247.5" width="68.2271" height="68.2271" rx="12.5" stroke="#FEF9D9" stroke-opacity="0.5"/>
<path d="M910.214 264.909H917.103L923.737 277.438H924.021L930.654 264.909H937.544L926.933 283.716V294H920.825V283.716L910.214 264.909Z" fill="#1C2542"/>
<path d="M942.349 300.443V298.021L948.421 288.455H950.509V291.807H949.274L945.446 297.865V297.979H954.075V300.443H942.349ZM949.33 303V299.705L949.387 298.632V288.455H952.271V303H949.33Z" fill="#1C2542"/>
<rect x="290" y="248" width="67.2271" height="67.2271" rx="12" fill="#FEF9D9"/>
<rect x="289.5" y="247.5" width="68.2271" height="68.2271" rx="12.5" stroke="#FEF9D9" stroke-opacity="0.5"/>
<path d="M311.376 294V264.909H317.526V277.736H317.91L328.379 264.909H335.751L324.955 277.935L335.879 294H328.521L320.552 282.04L317.526 285.733V294H311.376Z" fill="#1C2542"/>
<path d="M347.339 303.199C346.335 303.199 345.44 303.014 344.654 302.645C343.873 302.276 343.253 301.767 342.793 301.118C342.334 300.469 342.095 299.726 342.076 298.888H345.059C345.092 299.451 345.329 299.908 345.769 300.259C346.21 300.609 346.733 300.784 347.339 300.784C347.822 300.784 348.248 300.678 348.617 300.464C348.991 300.247 349.283 299.946 349.491 299.562C349.704 299.174 349.81 298.729 349.81 298.227C349.81 297.716 349.702 297.266 349.484 296.878C349.271 296.49 348.975 296.187 348.596 295.969C348.217 295.751 347.784 295.64 347.296 295.635C346.87 295.635 346.456 295.723 346.053 295.898C345.656 296.073 345.346 296.312 345.123 296.615L342.389 296.125L343.078 288.455H351.97V290.969H345.613L345.237 294.612H345.322C345.578 294.252 345.963 293.954 346.48 293.717C346.996 293.481 347.573 293.362 348.212 293.362C349.088 293.362 349.87 293.568 350.556 293.98C351.243 294.392 351.785 294.958 352.183 295.678C352.58 296.393 352.777 297.216 352.772 298.149C352.777 299.129 352.55 300 352.09 300.763C351.636 301.52 350.999 302.117 350.18 302.553C349.365 302.983 348.418 303.199 347.339 303.199Z" fill="#1C2542"/>
<rect x="364.847" y="248" width="67.2271" height="67.2271" rx="12" fill="#FEF9D9"/>
<rect x="364.347" y="247.5" width="68.2271" height="68.2271" rx="12.5" stroke="#FEF9D9" stroke-opacity="0.5"/>
<path d="M391.237 294H384.647L394.689 264.909H402.615L412.644 294H406.053L398.766 271.557H398.539L391.237 294ZM390.826 282.565H406.394V287.366H390.826V282.565Z" fill="#1C2542"/>
<path d="M423.202 288.455V303H420.127V291.374H420.041L416.71 293.462V290.734L420.311 288.455H423.202Z" fill="#1C2542"/>
<rect x="439.695" y="248" width="67.2271" height="67.2271" rx="12" fill="#FEF9D9"/>
<rect x="439.195" y="247.5" width="68.2271" height="68.2271" rx="12.5" stroke="#FEF9D9" stroke-opacity="0.5"/>
<path d="M476.852 273.276C476.738 272.13 476.251 271.24 475.389 270.605C474.527 269.971 473.358 269.653 471.88 269.653C470.877 269.653 470.029 269.795 469.338 270.08C468.646 270.354 468.116 270.738 467.747 271.23C467.387 271.723 467.207 272.281 467.207 272.906C467.188 273.427 467.297 273.882 467.534 274.27C467.78 274.658 468.116 274.994 468.542 275.278C468.968 275.553 469.461 275.795 470.02 276.003C470.578 276.202 471.175 276.372 471.809 276.514L474.423 277.139C475.692 277.423 476.857 277.802 477.917 278.276C478.978 278.749 479.896 279.331 480.673 280.023C481.449 280.714 482.051 281.528 482.477 282.466C482.913 283.403 483.135 284.478 483.145 285.69C483.135 287.471 482.68 289.014 481.781 290.321C480.891 291.618 479.603 292.627 477.917 293.347C476.241 294.057 474.219 294.412 471.852 294.412C469.503 294.412 467.458 294.052 465.716 293.332C463.983 292.613 462.628 291.547 461.653 290.136C460.687 288.716 460.18 286.959 460.133 284.866H466.085C466.151 285.842 466.43 286.656 466.923 287.31C467.425 287.954 468.092 288.441 468.926 288.773C469.769 289.095 470.72 289.256 471.781 289.256C472.823 289.256 473.727 289.104 474.494 288.801C475.27 288.498 475.872 288.077 476.298 287.537C476.724 286.997 476.937 286.377 476.937 285.676C476.937 285.023 476.743 284.473 476.355 284.028C475.976 283.583 475.417 283.205 474.679 282.892C473.949 282.58 473.055 282.295 471.994 282.04L468.826 281.244C466.374 280.648 464.437 279.715 463.017 278.446C461.596 277.177 460.891 275.468 460.9 273.318C460.891 271.557 461.359 270.018 462.306 268.702C463.263 267.385 464.574 266.358 466.241 265.619C467.908 264.881 469.802 264.511 471.923 264.511C474.082 264.511 475.966 264.881 477.576 265.619C479.196 266.358 480.455 267.385 481.355 268.702C482.254 270.018 482.718 271.543 482.747 273.276H476.852Z" fill="#1C2542"/>
<path d="M498.049 288.455V303H494.974V291.374H494.889L491.558 293.462V290.734L495.159 288.455H498.049Z" fill="#1C2542"/>
<rect x="514.542" y="248" width="67.2271" height="67.2271" rx="12" fill="#FEF9D9"/>
<rect x="514.042" y="247.5" width="68.2271" height="68.2271" rx="12.5" stroke="#FEF9D9" stroke-opacity="0.5"/>
<path d="M535.918 294V264.909H555.521V269.98H542.069V276.912H554.512V281.983H542.069V288.929H555.577V294H535.918Z" fill="#1C2542"/>
<path d="M572.897 288.455V303H569.822V291.374H569.736L566.406 293.462V290.734L570.006 288.455H572.897Z" fill="#1C2542"/>
<path d="M488.928 184.48C487.168 184.48 485.44 184.352 483.744 184.096C482.048 183.84 480.384 183.488 478.752 183.04L475.824 182.224L477.168 175.744L480.96 176.32C482.08 176.48 483.376 176.64 484.848 176.8C486.352 176.928 487.824 176.992 489.264 176.992C490.928 176.992 492.128 176.768 492.864 176.32C493.632 175.84 494.016 175.168 494.016 174.304C494.016 173.824 493.888 173.408 493.632 173.056C493.376 172.704 492.784 172.336 491.856 171.952C490.96 171.536 489.552 171.04 487.632 170.464C484.976 169.664 482.864 168.848 481.296 168.016C479.728 167.152 478.608 166.112 477.936 164.896C477.296 163.648 476.976 162.064 476.976 160.144C476.976 157.744 477.568 155.792 478.752 154.288C479.968 152.784 481.616 151.68 483.696 150.976C485.808 150.272 488.176 149.92 490.8 149.92C492.272 149.92 493.776 150.032 495.312 150.256C496.88 150.48 498.432 150.8 499.968 151.216L502.272 151.792L501.072 158.176L497.424 157.744C496.56 157.648 495.568 157.552 494.448 157.456C493.36 157.36 492.144 157.312 490.8 157.312C489.04 157.312 487.728 157.536 486.864 157.984C486 158.432 485.568 159.12 485.568 160.048C485.568 160.496 485.712 160.896 486 161.248C486.32 161.568 486.976 161.904 487.968 162.256C488.992 162.576 490.528 163.024 492.576 163.6C495.2 164.24 497.264 165.008 498.768 165.904C500.272 166.8 501.344 167.856 501.984 169.072C502.624 170.256 502.944 171.696 502.944 173.392C502.944 175.92 502.32 178 501.072 179.632C499.824 181.264 498.144 182.48 496.032 183.28C493.92 184.08 491.552 184.48 488.928 184.48ZM522.983 184.48C519.815 184.48 517.063 183.92 514.727 182.8C512.423 181.68 510.647 180.08 509.399 178C508.151 175.888 507.527 173.36 507.527 170.416V150.4H515.975V169.216C515.975 171.968 516.615 173.888 517.895 174.976C519.175 176.032 520.967 176.56 523.271 176.56C525.575 176.56 527.335 176.032 528.551 174.976C529.799 173.888 530.423 171.968 530.423 169.216V150.4H538.583V170.416C538.583 173.36 537.927 175.888 536.615 178C535.335 180.08 533.527 181.68 531.191 182.8C528.855 183.92 526.119 184.48 522.983 184.48ZM544.39 184V150.4H552.502L563.158 167.152H563.254L574.102 150.4H582.118V184H573.814V164.464L566.134 176.08H560.23L552.694 164.464V184H544.39ZM611.863 184V157.792H601.063V150.4H631.063V157.792H620.311V184H611.863ZM635.656 184V150.4H644.104V184H635.656ZM650.796 184V150.4H659.244V176.608H675.852V184H650.796ZM680.093 184V150.4H706.397V157.696H688.541V163.552H704.477V170.224H688.541V176.656H706.733V184H680.093Z" fill="#1C2542"/>
<path d="M510.424 213V201.8H514.504C515.677 201.8 516.696 202.019 517.56 202.456C518.435 202.893 519.112 203.533 519.592 204.376C520.072 205.208 520.312 206.221 520.312 207.416C520.312 208.568 520.067 209.565 519.576 210.408C519.096 211.24 518.408 211.88 517.512 212.328C516.627 212.776 515.571 213 514.344 213H510.424ZM512.12 211.496H514.44C515.325 211.496 516.072 211.336 516.68 211.016C517.299 210.685 517.768 210.221 518.088 209.624C518.408 209.016 518.568 208.28 518.568 207.416C518.568 206.509 518.408 205.752 518.088 205.144C517.779 204.525 517.32 204.067 516.712 203.768C516.104 203.459 515.347 203.304 514.44 203.304H512.12V211.496ZM523.825 213.112C523.398 213.112 522.988 213.032 522.593 212.872C522.198 212.712 521.873 212.467 521.617 212.136C521.372 211.805 521.249 211.384 521.249 210.872C521.249 210.211 521.457 209.693 521.873 209.32C522.289 208.936 522.876 208.664 523.633 208.504L526.337 207.896V207.848C526.337 207.283 526.172 206.877 525.841 206.632C525.51 206.376 525.03 206.248 524.401 206.248C524.049 206.248 523.692 206.275 523.329 206.328C522.966 206.381 522.636 206.445 522.337 206.52L521.953 206.616L521.665 205.544L522.065 205.4C522.556 205.208 523.025 205.064 523.473 204.968C523.932 204.872 524.385 204.824 524.833 204.824C525.761 204.824 526.513 205.069 527.089 205.56C527.665 206.051 527.953 206.803 527.953 207.816V211.032C527.953 211.373 528.033 211.608 528.193 211.736C528.353 211.853 528.694 211.928 529.217 211.96L529.137 213.032C529.03 213.064 528.913 213.085 528.785 213.096C528.668 213.107 528.561 213.112 528.465 213.112C527.921 213.112 527.494 212.995 527.185 212.76C526.886 212.515 526.678 212.211 526.561 211.848L526.193 212.168C525.83 212.488 525.441 212.728 525.025 212.888C524.609 213.037 524.209 213.112 523.825 213.112ZM524.337 211.752C524.582 211.752 524.838 211.704 525.105 211.608C525.372 211.501 525.644 211.352 525.921 211.16L526.337 210.872V208.888L523.889 209.56C523.494 209.677 523.217 209.827 523.057 210.008C522.908 210.189 522.833 210.413 522.833 210.68C522.833 211.021 522.966 211.288 523.233 211.48C523.5 211.661 523.868 211.752 524.337 211.752ZM530.559 213V204.952H532.191V213H530.559ZM531.375 203.128C531.173 203.128 530.986 203.08 530.815 202.984C530.645 202.877 530.511 202.744 530.415 202.584C530.319 202.413 530.271 202.227 530.271 202.024C530.271 201.843 530.319 201.672 530.415 201.512C530.511 201.341 530.645 201.208 530.815 201.112C530.986 201.016 531.173 200.968 531.375 200.968C531.578 200.968 531.759 201.016 531.919 201.112C532.09 201.208 532.223 201.341 532.319 201.512C532.426 201.672 532.479 201.848 532.479 202.04C532.479 202.232 532.426 202.413 532.319 202.584C532.223 202.744 532.09 202.877 531.919 202.984C531.759 203.08 531.578 203.128 531.375 203.128ZM536.655 213.112C535.897 213.112 535.348 212.947 535.007 212.616C534.676 212.275 534.511 211.811 534.511 211.224V201.192L536.143 200.68V210.856C536.143 211.133 536.217 211.341 536.367 211.48C536.516 211.619 536.772 211.688 537.135 211.688C537.231 211.688 537.332 211.688 537.439 211.688C537.556 211.677 537.679 211.667 537.807 211.656L537.775 212.904C537.593 212.979 537.401 213.032 537.199 213.064C537.007 213.096 536.825 213.112 536.655 213.112ZM539.802 216.344C539.642 216.344 539.444 216.328 539.21 216.296C538.975 216.264 538.719 216.211 538.442 216.136L537.866 215.976L538.106 214.728L538.634 214.792C538.815 214.803 538.991 214.813 539.162 214.824C539.332 214.835 539.476 214.84 539.594 214.84C539.86 214.84 540.074 214.781 540.234 214.664C540.404 214.557 540.543 214.381 540.65 214.136L541.114 212.968L537.818 204.952H539.594L541.946 211.064H542.026L544.362 204.952H546.058L541.93 214.92C541.727 215.421 541.45 215.784 541.098 216.008C540.756 216.232 540.324 216.344 539.802 216.344ZM553.889 213.064L550.897 204.952H552.625L554.657 210.968L556.513 204.952H558.225L560.193 210.968L562.161 204.952H563.825L560.897 213.064H559.361L557.361 207.112L555.473 213.064H553.889ZM568.44 213.112C567.63 213.112 566.92 212.936 566.312 212.584C565.715 212.232 565.251 211.747 564.92 211.128C564.59 210.499 564.424 209.779 564.424 208.968C564.424 208.157 564.59 207.443 564.92 206.824C565.262 206.195 565.736 205.704 566.344 205.352C566.952 205 567.656 204.824 568.456 204.824C569.267 204.824 569.971 205.005 570.568 205.368C571.166 205.72 571.624 206.211 571.944 206.84C572.275 207.459 572.44 208.168 572.44 208.968C572.44 209.779 572.27 210.499 571.928 211.128C571.598 211.747 571.134 212.232 570.536 212.584C569.939 212.936 569.24 213.112 568.44 213.112ZM568.44 211.704C568.92 211.704 569.331 211.592 569.672 211.368C570.024 211.144 570.296 210.829 570.488 210.424C570.68 210.008 570.776 209.523 570.776 208.968C570.776 208.413 570.68 207.933 570.488 207.528C570.307 207.123 570.04 206.808 569.688 206.584C569.336 206.36 568.92 206.248 568.44 206.248C567.971 206.248 567.555 206.36 567.192 206.584C566.84 206.808 566.563 207.123 566.36 207.528C566.168 207.933 566.072 208.413 566.072 208.968C566.072 209.523 566.168 210.008 566.36 210.424C566.563 210.829 566.84 211.144 567.192 211.368C567.555 211.592 567.971 211.704 568.44 211.704ZM574.403 213V204.952H575.603L575.795 205.976L576.419 205.544C576.739 205.331 577.086 205.16 577.459 205.032C577.832 204.893 578.19 204.824 578.531 204.824C578.648 204.824 578.766 204.84 578.883 204.872C579 204.904 579.112 204.957 579.219 205.032V206.312C578.867 206.323 578.52 206.36 578.179 206.424C577.848 206.477 577.464 206.6 577.027 206.792L576.035 207.176V213H574.403ZM583.603 213.112C583.016 213.112 582.499 213.005 582.051 212.792C581.613 212.568 581.24 212.264 580.931 211.88C580.621 211.485 580.387 211.043 580.227 210.552C580.067 210.051 579.987 209.523 579.987 208.968C579.987 208.403 580.067 207.875 580.227 207.384C580.387 206.883 580.621 206.44 580.931 206.056C581.251 205.672 581.635 205.373 582.083 205.16C582.531 204.936 583.037 204.824 583.603 204.824C583.923 204.824 584.253 204.867 584.595 204.952C584.947 205.037 585.283 205.16 585.603 205.32L586.099 205.56V201.192L587.731 200.68V213H586.499L586.355 212.024L585.827 212.36C585.475 212.595 585.107 212.781 584.723 212.92C584.349 213.048 583.976 213.112 583.603 213.112ZM581.635 208.968C581.635 209.533 581.731 210.024 581.923 210.44C582.115 210.845 582.387 211.155 582.739 211.368C583.101 211.581 583.539 211.688 584.051 211.688C584.264 211.688 584.488 211.656 584.723 211.592C584.957 211.528 585.213 211.416 585.491 211.256L586.099 210.92V206.872L585.491 206.6C585.235 206.483 584.989 206.397 584.755 206.344C584.52 206.28 584.285 206.248 584.051 206.248C583.571 206.248 583.144 206.355 582.771 206.568C582.408 206.781 582.125 207.091 581.923 207.496C581.731 207.901 581.635 208.392 581.635 208.968ZM594.497 216.472V204.952H595.729L595.889 205.912L596.401 205.576C596.774 205.341 597.148 205.16 597.521 205.032C597.905 204.893 598.273 204.824 598.625 204.824C599.34 204.824 599.969 205.005 600.513 205.368C601.057 205.72 601.478 206.211 601.777 206.84C602.086 207.459 602.241 208.168 602.241 208.968C602.241 209.576 602.15 210.136 601.969 210.648C601.798 211.149 601.553 211.587 601.233 211.96C600.913 212.323 600.529 212.605 600.081 212.808C599.644 213.011 599.158 213.112 598.625 213.112C598.294 213.112 597.953 213.069 597.601 212.984C597.26 212.899 596.934 212.781 596.625 212.632L596.129 212.376V216.12L594.497 216.472ZM598.177 211.64C598.668 211.64 599.094 211.533 599.457 211.32C599.82 211.107 600.097 210.803 600.289 210.408C600.492 210.013 600.593 209.544 600.593 209C600.593 208.445 600.497 207.971 600.305 207.576C600.124 207.171 599.852 206.861 599.489 206.648C599.126 206.424 598.689 206.312 598.177 206.312C597.964 206.312 597.734 206.355 597.489 206.44C597.244 206.515 596.977 206.632 596.689 206.792L596.129 207.096V211.08L596.737 211.32C597.025 211.427 597.281 211.507 597.505 211.56C597.74 211.613 597.964 211.64 598.177 211.64ZM606.712 213.112C605.816 213.112 605.154 212.867 604.728 212.376C604.312 211.885 604.104 211.229 604.104 210.408V204.952H605.72V210.024C605.72 210.579 605.853 210.989 606.12 211.256C606.397 211.512 606.797 211.64 607.32 211.64C607.554 211.64 607.784 211.608 608.008 211.544C608.232 211.48 608.466 211.389 608.712 211.272L609.352 210.984V204.952H610.984V213H609.736L609.544 211.752L609.88 212.008L609.032 212.456C608.626 212.68 608.226 212.845 607.832 212.952C607.448 213.059 607.074 213.112 606.712 213.112ZM612.78 213L612.764 211.864L617.196 206.36H612.844V204.952H619.452V206.056L614.972 211.576H619.516V213H612.78ZM620.592 213L620.576 211.864L625.008 206.36H620.656V204.952H627.264V206.056L622.784 211.576H627.328V213H620.592ZM631.077 213.112C630.319 213.112 629.77 212.947 629.429 212.616C629.098 212.275 628.933 211.811 628.933 211.224V201.192L630.565 200.68V210.856C630.565 211.133 630.639 211.341 630.789 211.48C630.938 211.619 631.194 211.688 631.557 211.688C631.653 211.688 631.754 211.688 631.861 211.688C631.978 211.677 632.101 211.667 632.229 211.656L632.197 212.904C632.015 212.979 631.823 213.032 631.621 213.064C631.429 213.096 631.247 213.112 631.077 213.112ZM637.259 213.112C636.48 213.112 635.766 212.957 635.115 212.648C634.475 212.328 633.958 211.864 633.563 211.256C633.168 210.637 632.971 209.88 632.971 208.984C632.971 208.376 633.072 207.816 633.275 207.304C633.478 206.792 633.766 206.355 634.139 205.992C634.512 205.619 634.939 205.331 635.419 205.128C635.899 204.925 636.422 204.824 636.987 204.824C637.787 204.824 638.454 205 638.987 205.352C639.531 205.704 639.936 206.184 640.203 206.792C640.48 207.389 640.619 208.067 640.619 208.824V209.352H634.651C634.715 209.875 634.87 210.312 635.115 210.664C635.371 211.005 635.696 211.261 636.091 211.432C636.486 211.603 636.923 211.688 637.403 211.688C637.702 211.688 638.006 211.661 638.315 211.608C638.624 211.555 638.939 211.485 639.259 211.4L639.947 211.176L640.395 212.248L639.771 212.552C639.366 212.733 638.944 212.872 638.507 212.968C638.08 213.064 637.664 213.112 637.259 213.112ZM634.715 208.152H639.067C638.992 207.555 638.779 207.085 638.427 206.744C638.086 206.392 637.606 206.216 636.987 206.216C636.603 206.216 636.251 206.296 635.931 206.456C635.622 206.605 635.36 206.829 635.147 207.128C634.944 207.416 634.8 207.757 634.715 208.152ZM650.137 213L652.345 201.8H653.609L651.401 213H650.137ZM645.993 210.44V209.048H653.849V210.44H645.993ZM646.857 213L649.065 201.8H650.329L648.121 213H646.857ZM646.633 205.752V204.36H654.489V205.752H646.633ZM664.299 210.36H662.667V213H660.955V210.36H656.411L655.307 209.352L658.331 201.8H660.203L657.291 208.792H660.955V205.656H662.667V208.792H664.299V210.36ZM665.844 213L669.892 203.4H664.18V201.8H671.684V203.064L667.764 213H665.844Z" fill="#1C2542"/>
</g>
<defs>
<filter id="filter0_d_43_3" x="178" y="345.886" width="281" height="188.227" filterUnits="userSpaceOnUse" color-interpolation-filters="sRGB">
<feFlood flood-opacity="0" result="BackgroundImageFix"/>
<feColorMatrix in="SourceAlpha" type="matrix" values="0 0 0 0 0 0 0 0 0 0 0 0 0 0 0 0 0 0 127 0" result="hardAlpha"/>
<feOffset dx="-10" dy="20"/>
<feGaussianBlur stdDeviation="10"/>
<feComposite in2="hardAlpha" operator="out"/>
<feColorMatrix type="matrix" values="0 0 0 0 0 0 0 0 0 0 0 0 0 0 0 0 0 0 0.25 0"/>
<feBlend mode="normal" in2="BackgroundImageFix" result="effect1_dropShadow_43_3"/>
<feBlend mode="normal" in="SourceGraphic" in2="effect1_dropShadow_43_3" result="shape"/>
</filter>
<filter id="filter1_d_43_3" x="439" y="345.886" width="554.59" height="188.227" filterUnits="userSpaceOnUse" color-interpolation-filters="sRGB">
<feFlood flood-opacity="0" result="BackgroundImageFix"/>
<feColorMatrix in="SourceAlpha" type="matrix" values="0 0 0 0 0 0 0 0 0 0 0 0 0 0 0 0 0 0 127 0" result="hardAlpha"/>
<feOffset dx="-10" dy="20"/>
<feGaussianBlur stdDeviation="10"/>
<feComposite in2="hardAlpha" operator="out"/>
<feColorMatrix type="matrix" values="0 0 0 0 0 0 0 0 0 0 0 0 0 0 0 0 0 0 0.25 0"/>
<feBlend mode="normal" in2="BackgroundImageFix" result="effect1_dropShadow_43_3"/>
<feBlend mode="normal" in="SourceGraphic" in2="effect1_dropShadow_43_3" result="shape"/>
</filter>
<clipPath id="paint0_diamond_43_3_clip_path"><path d="M172 321.132L218.332 251.18L281.471 309.776L240.136 348.386L195.166 354.292L172 321.132Z"/></clipPath><clipPath id="paint1_diamond_43_3_clip_path"><path d="M246 321.132L292.332 251.18L355.471 309.776L314.136 348.386L269.166 354.292L246 321.132Z"/></clipPath><clipPath id="paint2_diamond_43_3_clip_path"><path d="M320 321.132L366.332 251.18L429.471 309.776L388.136 348.386L343.166 354.292L320 321.132Z"/></clipPath><clipPath id="paint3_diamond_43_3_clip_path"><path d="M394 321.132L440.332 251.18L503.471 309.776L462.136 348.386L417.166 354.292L394 321.132Z"/></clipPath><clipPath id="paint4_diamond_43_3_clip_path"><path d="M468 321.132L514.332 251.18L577.471 309.776L536.136 348.386L491.166 354.292L468 321.132Z"/></clipPath><clipPath id="paint5_diamond_43_3_clip_path"><path d="M548 320.953L594.332 251L657.471 309.597L616.136 348.207L571.166 354.112L548 320.953Z"/></clipPath><clipPath id="paint6_diamond_43_3_clip_path"><path d="M622 320.953L668.332 251L731.471 309.597L690.136 348.207L645.166 354.112L622 320.953Z"/></clipPath><clipPath id="paint7_diamond_43_3_clip_path"><path d="M696 320.953L742.332 251L805.471 309.597L764.136 348.207L719.166 354.112L696 320.953Z"/></clipPath><clipPath id="paint8_diamond_43_3_clip_path"><path d="M770 320.953L816.332 251L879.471 309.597L838.136 348.207L793.166 354.112L770 320.953Z"/></clipPath><clipPath id="paint9_diamond_43_3_clip_path"><path d="M844 320.953L890.332 251L953.471 309.597L912.136 348.207L867.166 354.112L844 320.953Z"/></clipPath><linearGradient id="paint0_diamond_43_3" x1="0" y1="0" x2="500" y2="500" gradientUnits="userSpaceOnUse">
<stop/>
<stop offset="1" stop-opacity="0"/>
</linearGradient>
<linearGradient id="paint1_diamond_43_3" x1="0" y1="0" x2="500" y2="500" gradientUnits="userSpaceOnUse">
<stop/>
<stop offset="1" stop-opacity="0"/>
</linearGradient>
<linearGradient id="paint2_diamond_43_3" x1="0" y1="0" x2="500" y2="500" gradientUnits="userSpaceOnUse">
<stop/>
<stop offset="1" stop-opacity="0"/>
</linearGradient>
<linearGradient id="paint3_diamond_43_3" x1="0" y1="0" x2="500" y2="500" gradientUnits="userSpaceOnUse">
<stop/>
<stop offset="1" stop-opacity="0"/>
</linearGradient>
<linearGradient id="paint4_diamond_43_3" x1="0" y1="0" x2="500" y2="500" gradientUnits="userSpaceOnUse">
<stop/>
<stop offset="1" stop-opacity="0"/>
</linearGradient>
<linearGradient id="paint5_diamond_43_3" x1="0" y1="0" x2="500" y2="500" gradientUnits="userSpaceOnUse">
<stop/>
<stop offset="1" stop-opacity="0"/>
</linearGradient>
<linearGradient id="paint6_diamond_43_3" x1="0" y1="0" x2="500" y2="500" gradientUnits="userSpaceOnUse">
<stop/>
<stop offset="1" stop-opacity="0"/>
</linearGradient>
<linearGradient id="paint7_diamond_43_3" x1="0" y1="0" x2="500" y2="500" gradientUnits="userSpaceOnUse">
<stop/>
<stop offset="1" stop-opacity="0"/>
</linearGradient>
<linearGradient id="paint8_diamond_43_3" x1="0" y1="0" x2="500" y2="500" gradientUnits="userSpaceOnUse">
<stop/>
<stop offset="1" stop-opacity="0"/>
</linearGradient>
<linearGradient id="paint9_diamond_43_3" x1="0" y1="0" x2="500" y2="500" gradientUnits="userSpaceOnUse">
<stop/>
<stop offset="1" stop-opacity="0"/>
</linearGradient>
<clipPath id="clip0_43_3">
<rect width="1200" height="630" fill="white"/>
</clipPath>
</defs>
</svg>
